<svg width="152" height="48" viewBox="0 0 152 48" fill="none" xmlns="http://www.w3.org/2000/svg">
<rect x="0.807707" y="1.7789" width="150.362" height="44.8988" rx="22.4494" fill="#9AFF00"/>
<rect x="0.807707" y="1.7789" width="150.362" height="44.8988" rx="22.4494" stroke="#9AFF00" stroke-width="1.61541"/>
<path d="M38.6109 26.0844C37.8827 22.3717 41.1003 20.3884 41.3351 20.2495C40.8858 19.644 40.3279 19.1278 39.6899 18.7277C37.7667 17.5256 35.4241 17.4134 34.0306 18.0263L33.9886 18.0446C33.3158 18.3388 32.5897 18.4907 31.8557 18.4907C31.1217 18.4907 30.3957 18.3388 29.7228 18.0446L29.6809 18.0263C28.2831 17.4106 25.9447 17.5228 24.0215 18.7277C22.0982 19.9325 20.2295 22.6452 21.1771 27.8447C22.1248 33.0442 25.5827 36.21 25.5827 36.21C26.1169 36.6289 26.7544 36.8945 27.4271 36.9782C28.0999 37.062 28.7828 36.9608 29.4027 36.6855C30.7613 36.0907 31.3805 35.9841 31.653 35.9954C31.7928 35.9954 31.9228 35.9954 32.0584 35.9954C32.3379 35.9954 32.9501 36.0907 34.3087 36.6855C34.9287 36.9608 35.6115 37.062 36.2843 36.9782C36.9571 36.8945 37.5946 36.6289 38.1287 36.21C38.1287 36.21 40.551 33.9938 41.9026 30.2208C40.7396 29.6892 39.0861 28.5152 38.6109 26.0844Z" fill="#19181A"/>
<path d="M31.2447 17.8352C31.2447 17.8352 30.6367 12.6455 36.4582 11.7212L36.4345 12.4225C36.3865 13.808 35.8301 15.1269 34.8723 16.126C33.9144 17.125 32.6225 17.7337 31.2447 17.8352Z" fill="#19181A"/>
<path d="M54.4963 13.3201C54.5063 13.8927 54.4251 14.4633 54.2559 15.0103C54.114 15.4674 53.8719 15.8867 53.5472 16.2376C53.2245 16.5732 52.8282 16.8287 52.3899 16.9838C51.8604 17.1638 51.3037 17.2497 50.7448 17.2376H49.2506C49.1718 17.2345 49.096 17.2065 49.034 17.1577C48.9932 17.1217 48.9618 17.0764 48.9423 17.0256C48.9228 16.9748 48.9159 16.92 48.9222 16.8659V9.99308C48.9159 9.939 48.9228 9.8842 48.9423 9.83339C48.9618 9.78258 48.9932 9.73726 49.034 9.70133C49.0961 9.65279 49.1719 9.62529 49.2506 9.62278H50.8454C51.4013 9.60743 51.955 9.69688 52.478 9.88648C52.9025 10.0485 53.2848 10.3051 53.5962 10.6369C53.9023 10.972 54.1334 11.3689 54.2741 11.8011C54.4303 12.2918 54.5053 12.805 54.4963 13.3201ZM53.7289 13.3552C53.7327 12.9387 53.6762 12.5239 53.5612 12.1237C53.4609 11.7633 53.2851 11.4285 53.0454 11.1418C52.8049 10.8618 52.503 10.6415 52.1635 10.498C51.7304 10.3296 51.2677 10.2509 50.8035 10.2666H49.6378V16.5938H50.8105C51.2546 16.6049 51.6975 16.5404 52.1202 16.4031C52.463 16.2855 52.7704 16.0823 53.0133 15.8126C53.2656 15.5212 53.449 15.1765 53.55 14.8041C53.6765 14.3318 53.7357 13.844 53.7261 13.3552H53.7289Z" fill="#19181A"/>
<path d="M60.7707 14.4016C60.7745 14.7979 60.7194 15.1927 60.6072 15.5727C60.5067 15.9119 60.3399 16.2275 60.1166 16.5013C59.8975 16.7667 59.62 16.9775 59.3059 17.117C58.5953 17.4027 57.8039 17.4107 57.0877 17.1395C56.7869 17.0175 56.5195 16.8252 56.3078 16.5784C56.0908 16.3178 55.9309 16.0144 55.8381 15.6878C55.73 15.3032 55.6777 14.9049 55.683 14.5053C55.6794 14.1091 55.734 13.7144 55.8451 13.3342C55.9433 12.9958 56.1087 12.6809 56.3315 12.4084C56.5509 12.1451 56.8285 11.9366 57.1422 11.7997C57.5019 11.6474 57.8897 11.5733 58.28 11.5823C58.6516 11.5746 59.0211 11.6404 59.3674 11.7758C59.6673 11.8973 59.9335 12.0898 60.1431 12.3369C60.359 12.5982 60.5189 12.9014 60.6128 13.2276C60.7222 13.6091 60.7754 14.0046 60.7707 14.4016ZM60.0327 14.4675C60.0339 14.1767 60.0044 13.8866 59.9446 13.6021C59.8925 13.3437 59.7929 13.0974 59.6511 12.8755C59.5128 12.6648 59.3233 12.493 59.1004 12.3762C58.8329 12.2445 58.5372 12.181 58.2394 12.191C57.9561 12.1835 57.6749 12.2416 57.4175 12.3607C57.1955 12.4708 57.0036 12.6335 56.8585 12.8348C56.7056 13.0498 56.5951 13.2921 56.5328 13.5488C56.461 13.8396 56.4258 14.1384 56.428 14.438C56.4267 14.7311 56.4562 15.0236 56.516 15.3105C56.5663 15.5691 56.6655 15.8157 56.8082 16.037C56.9464 16.2464 57.136 16.4164 57.3589 16.5307C57.6227 16.648 57.9077 16.7096 58.1962 16.7118C58.4847 16.714 58.7706 16.6566 59.0361 16.5434C59.2582 16.4346 59.4502 16.2728 59.5952 16.0721C59.7488 15.8586 59.8595 15.617 59.9209 15.3609C59.9951 15.0694 60.0327 14.7698 60.0327 14.4689V14.4675Z" fill="#19181A"/>
<path d="M69.3122 11.7842C69.312 11.8075 69.3087 11.8306 69.3024 11.853L69.2828 11.9371L67.6419 17.1198C67.6349 17.149 67.6193 17.1754 67.5971 17.1956C67.5722 17.217 67.5432 17.2332 67.5119 17.2433C67.4664 17.2566 67.4195 17.2646 67.3721 17.2671C67.3148 17.2671 67.2477 17.2671 67.1694 17.2671C67.0989 17.2679 67.0285 17.2646 66.9584 17.2573C66.9111 17.2532 66.8643 17.2447 66.8186 17.232C66.7867 17.2223 66.7573 17.206 66.732 17.1843C66.7108 17.1656 66.6953 17.1413 66.6872 17.1142L65.4572 12.9147L65.4447 12.8671L65.4335 12.9147L64.2845 17.1142C64.2774 17.144 64.2607 17.1706 64.237 17.1899C64.2085 17.2125 64.1757 17.2287 64.1406 17.2376C64.0916 17.2504 64.0415 17.2584 63.991 17.2615C63.9323 17.2615 63.8666 17.2615 63.7925 17.2615C63.7258 17.2623 63.659 17.259 63.5927 17.2517C63.5454 17.2478 63.4986 17.2394 63.4529 17.2264C63.4212 17.2173 63.392 17.201 63.3676 17.1787C63.3482 17.1591 63.3338 17.135 63.3257 17.1086L61.703 11.9441C61.691 11.9181 61.6821 11.8908 61.6764 11.8628C61.6713 11.8393 61.6685 11.8153 61.668 11.7912C61.6674 11.7668 61.6732 11.7426 61.6848 11.7211C61.6983 11.6999 61.7193 11.6844 61.7435 11.6776C61.7779 11.6664 61.8136 11.6594 61.8497 11.6566C61.8917 11.6566 61.9448 11.6566 62.0076 11.6566C62.0739 11.6559 62.1401 11.6587 62.2061 11.665C62.2454 11.6681 62.2841 11.6771 62.3207 11.6917C62.3439 11.7012 62.3635 11.7179 62.3766 11.7393C62.3891 11.7615 62.399 11.785 62.406 11.8095L63.8037 16.455L63.8149 16.4971L63.8275 16.455L65.0994 11.8095C65.1056 11.7842 65.1165 11.7604 65.1316 11.7393C65.1464 11.7183 65.1667 11.7019 65.1903 11.6917C65.2238 11.6778 65.2591 11.6688 65.2951 11.665C65.3527 11.6588 65.4105 11.656 65.4684 11.6566C65.523 11.6559 65.5777 11.6588 65.6319 11.665C65.6683 11.6694 65.704 11.6783 65.7382 11.6917C65.7621 11.7012 65.7826 11.7179 65.7969 11.7393C65.8093 11.7615 65.8192 11.785 65.8262 11.8095L67.1974 16.455L67.2086 16.4971V16.455L68.6133 11.8039C68.6205 11.7788 68.6318 11.7551 68.6468 11.7337C68.6619 11.7119 68.6834 11.6952 68.7083 11.686C68.7446 11.6719 68.7828 11.663 68.8215 11.6594C68.8852 11.6531 68.9491 11.6503 69.0131 11.651C69.0746 11.651 69.1262 11.651 69.1654 11.651C69.1978 11.653 69.2296 11.6611 69.2591 11.6748C69.279 11.6835 69.2953 11.6989 69.3052 11.7183C69.312 11.7396 69.3144 11.762 69.3122 11.7842Z" fill="#19181A"/>
<path d="M74.967 17.1198C74.9673 17.1426 74.961 17.165 74.9488 17.1843C74.9359 17.2056 74.9162 17.2219 74.8929 17.2306C74.8596 17.2456 74.8243 17.2555 74.7881 17.26C74.7326 17.2693 74.6765 17.2735 74.6203 17.2727C74.5628 17.2736 74.5052 17.2694 74.4484 17.26C74.4118 17.2555 74.376 17.2455 74.3422 17.2306C74.3193 17.2211 74.2999 17.205 74.2863 17.1843C74.2752 17.1646 74.2694 17.1424 74.2695 17.1198V13.9611C74.2759 13.6915 74.2501 13.4221 74.1926 13.1588C74.1493 12.9697 74.0721 12.79 73.9648 12.6286C73.8656 12.4837 73.7314 12.3665 73.5748 12.2877C73.4007 12.2034 73.209 12.1621 73.0158 12.1671C72.7225 12.1758 72.4393 12.2769 72.2065 12.456C71.886 12.6961 71.6001 12.9793 71.3567 13.2976V17.1198C71.357 17.1426 71.3506 17.165 71.3385 17.1843C71.3258 17.2052 71.3067 17.2215 71.284 17.2306C71.2501 17.2454 71.2144 17.2553 71.1778 17.26C71.1205 17.2694 71.0625 17.2737 71.0044 17.2727C70.9487 17.2735 70.893 17.2693 70.8381 17.26C70.8006 17.255 70.764 17.2451 70.7291 17.2306C70.7059 17.2224 70.6865 17.2059 70.6746 17.1843C70.6644 17.1643 70.6591 17.1422 70.6592 17.1198V11.8038C70.6591 11.7814 70.6644 11.7593 70.6746 11.7393C70.687 11.7171 70.706 11.6995 70.7291 11.6888C70.7617 11.6733 70.7967 11.6633 70.8325 11.6594C70.8859 11.653 70.9396 11.6502 70.9933 11.6509C71.0479 11.6502 71.1025 11.6531 71.1568 11.6594C71.1919 11.6625 71.2261 11.6725 71.2574 11.6888C71.2784 11.7004 71.2954 11.718 71.3063 11.7393C71.3165 11.7593 71.3218 11.7814 71.3217 11.8038V12.557C71.5739 12.2581 71.8773 12.0068 72.2177 11.815C72.486 11.6688 72.7859 11.5903 73.0912 11.5864C73.3939 11.5769 73.6947 11.6374 73.9704 11.7632C74.1988 11.8716 74.3971 12.0349 74.5477 12.2386C74.6991 12.4488 74.807 12.6872 74.8649 12.9399C74.9345 13.2567 74.9669 13.5806 74.9614 13.905L74.967 17.1198Z" fill="#19181A"/>
<path d="M77.5969 17.1202C77.5965 17.1429 77.5902 17.1651 77.5787 17.1847C77.5655 17.2057 77.5459 17.2219 77.5228 17.231C77.4895 17.246 77.4542 17.2559 77.418 17.2604C77.3607 17.2698 77.3027 17.274 77.2447 17.2731C77.1885 17.2739 77.1324 17.2697 77.077 17.2604C77.0399 17.2556 77.0037 17.2457 76.9693 17.231C76.9456 17.2232 76.9256 17.2066 76.9134 17.1847C76.9037 17.1646 76.8989 17.1425 76.8995 17.1202V9.19114C76.8989 9.16882 76.9037 9.1467 76.9134 9.12662C76.9257 9.10419 76.9456 9.08682 76.9693 9.07753C77.0032 9.06149 77.0397 9.05152 77.077 9.04807C77.1326 9.04066 77.1886 9.03738 77.2447 9.03826C77.3026 9.03727 77.3605 9.04054 77.418 9.04807C77.4545 9.05127 77.49 9.06127 77.5228 9.07753C77.5458 9.08808 77.5652 9.10514 77.5787 9.12662C77.5902 9.14619 77.5965 9.16842 77.5969 9.19114V17.1202Z" fill="#19181A"/>
<path d="M84.2453 14.4016C84.2487 14.798 84.1931 15.1928 84.0804 15.5728C83.9803 15.9118 83.814 16.2274 83.5912 16.5013C83.3716 16.7668 83.0936 16.9776 82.7791 17.1171C82.422 17.2701 82.0366 17.3451 81.6483 17.3373C81.2763 17.3451 80.9065 17.2779 80.5609 17.1395C80.2607 17.0172 79.9938 16.8248 79.7824 16.5784C79.565 16.3181 79.4049 16.0146 79.3128 15.6878C79.2046 15.3032 79.1523 14.9049 79.1576 14.5054C79.1536 14.1092 79.2077 13.7145 79.3184 13.3342C79.4165 12.9958 79.582 12.6809 79.8048 12.4084C80.0247 12.145 80.3027 11.9366 80.6168 11.7997C80.9765 11.6473 81.3643 11.5732 81.7546 11.5823C82.1257 11.5745 82.4948 11.6403 82.8406 11.7759C83.1411 11.8969 83.4079 12.0894 83.6177 12.3369C83.8338 12.5979 83.9932 12.9013 84.086 13.2276C84.1966 13.6089 84.2503 14.0045 84.2453 14.4016ZM83.5059 14.4675C83.5071 14.1767 83.4776 13.8866 83.4178 13.6021C83.3662 13.3438 83.2671 13.0975 83.1257 12.8755C82.9874 12.6648 82.7979 12.493 82.575 12.3762C82.3071 12.2443 82.0109 12.1807 81.7126 12.191C81.4298 12.1837 81.1491 12.2418 80.8922 12.3607C80.6697 12.4701 80.4776 12.6329 80.3331 12.8348C80.1802 13.0498 80.0697 13.2922 80.0074 13.5488C79.9344 13.8394 79.8987 14.1383 79.9012 14.438C79.8999 14.7312 79.9294 15.0236 79.9892 15.3105C80.0406 15.569 80.1402 15.8155 80.2828 16.037C80.421 16.2464 80.6106 16.4164 80.8335 16.5308C81.0971 16.6486 81.3822 16.7105 81.6708 16.7127C81.9594 16.7149 82.2453 16.6572 82.5107 16.5434C82.735 16.4351 82.9294 16.2733 83.0768 16.0721C83.2299 15.8582 83.3405 15.6168 83.4025 15.361C83.4739 15.0691 83.5086 14.7694 83.5059 14.4689V14.4675Z" fill="#19181A"/>
<path d="M89.5241 17.1202C89.5251 17.1374 89.5221 17.1546 89.5153 17.1704C89.5085 17.1862 89.4981 17.2002 89.485 17.2113C89.4559 17.2342 89.4219 17.25 89.3857 17.2576C89.3311 17.2691 89.2752 17.2742 89.2194 17.273C89.1622 17.2737 89.105 17.2685 89.0489 17.2576C89.0094 17.251 88.9721 17.2351 88.9398 17.2113C88.9272 17.1999 88.9173 17.1858 88.9107 17.17C88.9042 17.1542 88.9013 17.1372 88.9021 17.1202V16.5254C88.6791 16.7733 88.4117 16.977 88.1138 17.1258C87.8365 17.265 87.5307 17.3375 87.2206 17.3376C86.9672 17.3412 86.7148 17.3043 86.4729 17.2282C86.2671 17.1642 86.0767 17.0582 85.9138 16.9168C85.7613 16.7816 85.6409 16.6139 85.5616 16.4259C85.4769 16.221 85.435 16.001 85.4385 15.7792C85.4287 15.5181 85.4883 15.259 85.6111 15.0286C85.7339 14.7982 85.9155 14.6046 86.1374 14.4678C86.3837 14.3126 86.6553 14.202 86.9397 14.141C87.2825 14.0648 87.6328 14.0281 87.9838 14.0316H88.8225V13.5729C88.8253 13.3696 88.8014 13.1668 88.7512 12.9698C88.7108 12.8079 88.6327 12.6579 88.5233 12.5322C88.4112 12.41 88.2697 12.3188 88.1124 12.2671C87.9137 12.2035 87.7059 12.1737 87.4974 12.1787C87.2833 12.1763 87.0701 12.2051 86.8642 12.2643C86.6951 12.3143 86.5305 12.3785 86.3722 12.4564C86.2325 12.5266 86.1151 12.5967 86.0228 12.6472C85.9649 12.6903 85.898 12.7196 85.8271 12.7327C85.805 12.733 85.7832 12.7288 85.7628 12.7201C85.7419 12.7114 85.7242 12.6962 85.7125 12.6766C85.6973 12.6513 85.6873 12.6232 85.6831 12.5939C85.6771 12.554 85.6743 12.5136 85.6748 12.4733C85.6729 12.4073 85.679 12.3414 85.6929 12.2769C85.71 12.2228 85.7414 12.1743 85.7838 12.1366C85.8622 12.0671 85.9496 12.0085 86.0438 11.9627C86.1827 11.8909 86.3266 11.829 86.4743 11.7776C86.6457 11.7177 86.8214 11.6708 86.9998 11.6373C87.1842 11.6028 87.3714 11.5854 87.5589 11.5854C87.8707 11.5773 88.1815 11.6219 88.4786 11.7172C88.7086 11.7925 88.9169 11.923 89.0852 12.0974C89.2447 12.2692 89.3586 12.4786 89.4165 12.7061C89.487 12.9733 89.5209 13.2489 89.5171 13.5252L89.5241 17.1202ZM88.8253 14.6081H87.858C87.6094 14.6043 87.3612 14.6302 87.1186 14.6852C86.9307 14.7262 86.7521 14.8019 86.5917 14.9082C86.459 14.9973 86.3512 15.119 86.2786 15.2617C86.2076 15.4079 86.1721 15.5689 86.1751 15.7316C86.1692 15.8673 86.192 16.0028 86.2421 16.129C86.2922 16.2552 86.3685 16.3693 86.4659 16.4637C86.6926 16.6582 86.9859 16.7563 87.2836 16.7372C87.5569 16.7384 87.8252 16.6641 88.0593 16.5226C88.3456 16.3409 88.6037 16.1178 88.8253 15.8606V14.6081Z" fill="#19181A"/>
<path d="M95.7363 17.12C95.7371 17.1441 95.7323 17.1681 95.7223 17.1901C95.7103 17.2114 95.6916 17.2281 95.6692 17.2378C95.6384 17.2505 95.6059 17.259 95.5727 17.263C95.5242 17.2705 95.4751 17.2738 95.426 17.2729C95.3741 17.2738 95.3222 17.2705 95.2708 17.263C95.2368 17.2592 95.2034 17.2507 95.1716 17.2378C95.1484 17.227 95.1283 17.2106 95.1129 17.1901C95.0987 17.1696 95.0913 17.145 95.0919 17.12V16.3555C94.839 16.6386 94.5444 16.8813 94.2184 17.0751C93.9214 17.2487 93.5836 17.3392 93.24 17.3374C92.9001 17.3477 92.5632 17.2705 92.2615 17.113C91.9962 16.9679 91.7698 16.7605 91.6018 16.5084C91.4241 16.2346 91.2981 15.9303 91.23 15.6107C91.1501 15.2526 91.1107 14.8865 91.1126 14.5195C91.1078 14.108 91.1572 13.6977 91.2594 13.2992C91.3436 12.9657 91.4907 12.6515 91.6927 12.3735C91.8785 12.123 92.1215 11.9209 92.4013 11.7844C92.7079 11.6429 93.0424 11.5729 93.3797 11.5796C93.686 11.5763 93.9883 11.6501 94.2589 11.7942C94.5533 11.9601 94.8183 12.1739 95.043 12.4268V9.22039C95.0429 9.19796 95.0482 9.17583 95.0584 9.15587C95.0705 9.13392 95.0905 9.11738 95.1143 9.10958C95.1487 9.09483 95.1849 9.08492 95.2219 9.08013C95.2774 9.07086 95.3335 9.06663 95.3897 9.0675C95.4477 9.0666 95.5057 9.07083 95.563 9.08013C95.5992 9.08467 95.6345 9.09459 95.6678 9.10958C95.6907 9.11902 95.7101 9.13515 95.7237 9.15587C95.735 9.17548 95.7408 9.19776 95.7405 9.22039L95.7363 17.12ZM95.0374 13.2796C94.7965 12.9698 94.5143 12.6946 94.1988 12.4619C93.9498 12.2821 93.6515 12.1841 93.3448 12.1813C93.1003 12.1749 92.8596 12.2429 92.6543 12.3763C92.4604 12.5082 92.2996 12.6834 92.1847 12.8882C92.06 13.1119 91.9708 13.3537 91.9205 13.605C91.8662 13.8723 91.839 14.1444 91.8394 14.4171C91.8392 14.7047 91.8625 14.9918 91.9093 15.2755C91.9502 15.5344 92.0313 15.7853 92.1497 16.0189C92.2553 16.2281 92.4103 16.4082 92.6012 16.5435C92.8085 16.6795 93.0525 16.748 93.3001 16.7399C93.4392 16.7402 93.5776 16.7203 93.711 16.681C93.8558 16.6358 93.9936 16.5707 94.1205 16.4874C94.2771 16.3847 94.4236 16.2673 94.558 16.1367C94.7296 15.9697 94.8906 15.7922 95.0402 15.6051L95.0374 13.2796Z" fill="#19181A"/>
<path d="M105.102 14.4016C105.106 14.7979 105.05 15.1927 104.938 15.5727C104.838 15.9115 104.671 16.2271 104.449 16.5013C104.229 16.7664 103.951 16.9771 103.637 17.117C103.28 17.2699 102.894 17.345 102.506 17.3372C102.134 17.3452 101.764 17.278 101.419 17.1395C101.118 17.0171 100.851 16.8248 100.639 16.5784C100.422 16.318 100.262 16.0145 100.171 15.6878C100.061 15.3034 100.008 14.905 100.014 14.5053C100.01 14.1091 100.065 13.7144 100.176 13.3342C100.274 12.9958 100.44 12.6809 100.663 12.4084C100.883 12.145 101.161 11.9366 101.475 11.7997C101.834 11.6474 102.221 11.5733 102.611 11.5823C102.983 11.5745 103.352 11.6403 103.698 11.7758C103.998 11.8973 104.265 12.0898 104.474 12.3369C104.691 12.5979 104.851 12.9012 104.944 13.2276C105.053 13.6091 105.107 14.0046 105.102 14.4016ZM104.364 14.4675C104.365 14.1767 104.335 13.8866 104.276 13.6021C104.224 13.3437 104.124 13.0974 103.982 12.8755C103.844 12.6648 103.654 12.493 103.432 12.3762C103.164 12.2445 102.868 12.181 102.571 12.191C102.288 12.1836 102.007 12.2416 101.75 12.3607C101.528 12.4706 101.336 12.6334 101.191 12.8348C101.039 13.0502 100.928 13.2924 100.865 13.5488C100.793 13.8396 100.758 14.1384 100.76 14.438C100.759 14.7311 100.789 15.0236 100.849 15.3105C100.9 15.5688 100.999 15.8151 101.141 16.037C101.279 16.2464 101.47 16.4165 101.693 16.5307C101.961 16.661 102.256 16.7236 102.554 16.7131C102.837 16.7204 103.117 16.6623 103.374 16.5434C103.596 16.4341 103.788 16.2724 103.933 16.0721C104.086 15.8582 104.196 15.6167 104.258 15.3609C104.331 15.0693 104.366 14.7696 104.364 14.4689V14.4675Z" fill="#19181A"/>
<path d="M110.964 17.1202C110.964 17.1428 110.958 17.1651 110.947 17.1848C110.934 17.2058 110.915 17.222 110.892 17.231C110.858 17.246 110.823 17.256 110.787 17.2605C110.731 17.2697 110.675 17.2739 110.619 17.2731C110.561 17.274 110.503 17.2698 110.446 17.2605C110.409 17.256 110.374 17.246 110.341 17.231C110.318 17.222 110.298 17.2058 110.285 17.1848C110.274 17.1651 110.268 17.1428 110.268 17.1202V13.9615C110.274 13.692 110.248 13.4227 110.191 13.1592C110.148 12.9698 110.07 12.7901 109.962 12.629C109.864 12.484 109.73 12.3666 109.573 12.2882C109.399 12.2043 109.208 12.1629 109.014 12.1676C108.721 12.176 108.439 12.2771 108.207 12.4565C107.886 12.6965 107.6 12.9797 107.357 13.2981V17.1202C107.356 17.143 107.35 17.1652 107.339 17.1848C107.325 17.2058 107.306 17.222 107.283 17.231C107.249 17.246 107.214 17.256 107.178 17.2605C107.12 17.2699 107.062 17.2741 107.004 17.2731C106.949 17.2739 106.893 17.2697 106.838 17.2605C106.801 17.2557 106.764 17.2457 106.729 17.231C106.705 17.2232 106.685 17.2067 106.673 17.1848C106.664 17.1647 106.659 17.1426 106.659 17.1202V11.8043C106.659 11.782 106.664 11.7598 106.673 11.7398C106.686 11.7172 106.705 11.6995 106.729 11.6893C106.761 11.6739 106.796 11.664 106.831 11.6598C106.885 11.6535 106.939 11.6507 106.993 11.6514C107.048 11.6508 107.103 11.6536 107.157 11.6598C107.192 11.6627 107.225 11.6727 107.256 11.6893C107.277 11.7008 107.295 11.7184 107.306 11.7398C107.317 11.7597 107.322 11.7819 107.322 11.8043V12.5575C107.574 12.2582 107.877 12.0069 108.218 11.8155C108.486 11.6693 108.786 11.5908 109.091 11.5869C109.394 11.5775 109.695 11.638 109.97 11.7636C110.198 11.8727 110.397 12.0359 110.548 12.2391C110.699 12.4493 110.806 12.6878 110.864 12.9404C110.933 13.2572 110.966 13.5811 110.96 13.9054L110.964 17.1202Z" fill="#19181A"/>
<path d="M118.173 16.8018C118.174 16.8693 118.167 16.9367 118.152 17.0024C118.141 17.0475 118.119 17.0891 118.088 17.123C118.05 17.1576 118.006 17.1851 117.959 17.2044C117.896 17.2327 117.83 17.2547 117.762 17.2703C117.685 17.2879 117.607 17.3014 117.528 17.311C117.449 17.3204 117.368 17.3251 117.288 17.325C117.061 17.3308 116.834 17.2952 116.62 17.2198C116.444 17.1548 116.288 17.0439 116.168 16.8986C116.043 16.7395 115.956 16.5539 115.913 16.3558C115.857 16.1007 115.831 15.8399 115.834 15.5788V12.2672H115.043C115.017 12.2683 114.991 12.262 114.969 12.2491C114.946 12.2362 114.927 12.2172 114.915 12.1942C114.878 12.1268 114.862 12.0505 114.867 11.974C114.866 11.927 114.87 11.88 114.878 11.8338C114.885 11.8005 114.897 11.7686 114.915 11.7398C114.927 11.7168 114.946 11.6978 114.969 11.6849C114.991 11.672 115.017 11.6657 115.043 11.6668H115.834V10.361C115.834 10.3387 115.839 10.3166 115.848 10.2965C115.861 10.2743 115.881 10.2566 115.904 10.246C115.939 10.2302 115.976 10.2202 116.013 10.2165C116.069 10.2104 116.124 10.2076 116.18 10.2081C116.238 10.2074 116.295 10.2102 116.353 10.2165C116.389 10.2197 116.425 10.2297 116.458 10.246C116.481 10.2574 116.5 10.2748 116.514 10.2965C116.526 10.3157 116.532 10.3382 116.532 10.361V11.6668H117.997C118.023 11.6657 118.049 11.672 118.071 11.6849C118.094 11.6978 118.113 11.7168 118.125 11.7398C118.143 11.7686 118.155 11.8005 118.162 11.8338C118.17 11.88 118.174 11.927 118.173 11.974C118.178 12.0508 118.161 12.1274 118.122 12.1942C118.11 12.2168 118.092 12.2355 118.07 12.2484C118.048 12.2612 118.022 12.2677 117.997 12.2672H116.532V15.4848C116.514 15.802 116.574 16.1188 116.705 16.4077C116.82 16.619 117.029 16.7252 117.334 16.7261C117.42 16.727 117.506 16.7171 117.59 16.6967C117.658 16.6789 117.725 16.6573 117.791 16.6321C117.85 16.6083 117.9 16.5872 117.941 16.5676C117.975 16.5499 118.012 16.5398 118.05 16.5382C118.068 16.5375 118.086 16.5414 118.103 16.5494C118.12 16.5593 118.133 16.5746 118.141 16.5929C118.151 16.6196 118.159 16.6473 118.164 16.6756C118.171 16.7174 118.173 16.7596 118.173 16.8018Z" fill="#19181A"/>
<path d="M123.862 17.1202C123.862 17.1428 123.856 17.165 123.845 17.1847C123.832 17.2057 123.812 17.2219 123.789 17.231C123.756 17.246 123.72 17.2559 123.684 17.2604C123.629 17.2697 123.573 17.2739 123.516 17.2731C123.458 17.274 123.4 17.2697 123.343 17.2604C123.307 17.2559 123.272 17.246 123.238 17.231C123.215 17.2219 123.196 17.2057 123.182 17.1847C123.171 17.1651 123.165 17.1429 123.164 17.1202V13.9615C123.17 13.692 123.145 13.4227 123.089 13.1592C123.045 12.9698 122.968 12.79 122.86 12.629C122.761 12.4839 122.627 12.3666 122.471 12.2881C122.297 12.2042 122.105 12.1629 121.912 12.1675C121.619 12.1759 121.336 12.2771 121.104 12.4565C120.784 12.6965 120.498 12.9797 120.254 13.298V17.1202C120.254 17.1429 120.247 17.1651 120.236 17.1847C120.223 17.2057 120.203 17.2219 120.18 17.231C120.147 17.246 120.111 17.2559 120.075 17.2604C120.018 17.2698 119.96 17.274 119.902 17.2731C119.846 17.2739 119.791 17.2697 119.736 17.2604C119.698 17.2556 119.661 17.2457 119.627 17.231C119.603 17.2232 119.583 17.2066 119.571 17.1847C119.561 17.1646 119.556 17.1425 119.557 17.1202V9.19114C119.556 9.16882 119.561 9.1467 119.571 9.12662C119.583 9.10419 119.603 9.08682 119.627 9.07753C119.661 9.06149 119.698 9.05153 119.736 9.04807C119.791 9.04065 119.846 9.03737 119.902 9.03826C119.96 9.03727 120.018 9.04054 120.075 9.04807C120.112 9.05127 120.147 9.06127 120.18 9.07753C120.203 9.08808 120.223 9.10514 120.236 9.12662C120.247 9.14619 120.254 9.16842 120.254 9.19114V12.514C120.5 12.2309 120.793 11.9935 121.121 11.8126C121.388 11.6681 121.685 11.5906 121.989 11.5868C122.291 11.5775 122.592 11.6379 122.868 11.7636C123.096 11.8726 123.294 12.0358 123.445 12.239C123.596 12.4493 123.704 12.6877 123.761 12.9404C123.831 13.2571 123.863 13.581 123.857 13.9054L123.862 17.1202Z" fill="#19181A"/>
<path d="M130.122 14.1881C130.129 14.2422 130.122 14.297 130.102 14.3478C130.083 14.3986 130.051 14.4439 130.01 14.4798C129.948 14.5284 129.872 14.5559 129.794 14.5584H126.178C126.175 14.8595 126.207 15.1598 126.274 15.4533C126.33 15.7018 126.439 15.9353 126.593 16.1377C126.748 16.3303 126.949 16.48 127.177 16.5726C127.457 16.6817 127.756 16.7337 128.056 16.7254C128.278 16.7274 128.5 16.7058 128.718 16.6609C128.89 16.6258 129.059 16.5789 129.225 16.5207C129.365 16.4674 129.485 16.4197 129.577 16.3804C129.638 16.3465 129.704 16.3246 129.773 16.3159C129.796 16.3154 129.818 16.3218 129.837 16.3341C129.858 16.3472 129.875 16.3662 129.885 16.3888C129.898 16.4203 129.907 16.4533 129.911 16.487C129.917 16.5335 129.92 16.5804 129.92 16.6273C129.922 16.6539 129.922 16.6806 129.92 16.7072C129.916 16.7309 129.911 16.7544 129.904 16.7773C129.899 16.7993 129.89 16.8201 129.878 16.8391C129.865 16.8607 129.849 16.8805 129.832 16.898C129.775 16.9398 129.714 16.9747 129.65 17.0018C129.521 17.0609 129.388 17.1101 129.252 17.149C129.063 17.2033 128.873 17.2473 128.68 17.2809C128.449 17.3213 128.215 17.341 127.981 17.3398C127.609 17.3466 127.24 17.2839 126.891 17.1546C126.585 17.0389 126.312 16.8513 126.094 16.6076C125.868 16.3474 125.701 16.0412 125.605 15.7099C125.487 15.3076 125.43 14.8895 125.437 14.47C125.431 14.0594 125.489 13.6504 125.61 13.2582C125.712 12.9245 125.88 12.6152 126.105 12.3493C126.318 12.102 126.583 11.9068 126.882 11.7784C127.202 11.6441 127.546 11.5773 127.893 11.582C128.244 11.572 128.592 11.64 128.913 11.7812C129.184 11.9046 129.423 12.0889 129.612 12.3198C129.797 12.5514 129.934 12.8188 130.012 13.1053C130.097 13.4117 130.139 13.7284 130.138 14.0464L130.122 14.1881ZM129.401 13.9833C129.412 13.4223 129.283 12.9809 129.014 12.6592C128.744 12.3422 128.351 12.1823 127.836 12.1823C127.594 12.1776 127.355 12.229 127.137 12.3324C126.942 12.4284 126.769 12.5635 126.628 12.7294C126.486 12.8986 126.378 13.0933 126.308 13.303C126.233 13.5226 126.19 13.7516 126.179 13.9833H129.401Z" fill="#19181A"/>
<path d="M70.3717 28.6092C70.2436 28.0142 70.0067 27.4482 69.6728 26.94C69.3521 26.4552 68.9172 26.0573 68.4065 25.7815C67.5318 25.3557 66.5376 25.2457 65.5915 25.4701C65.2854 25.5476 64.9908 25.665 64.7151 25.8193C64.4209 25.9843 64.1429 26.1768 63.8849 26.3944C63.7758 26.4856 63.664 26.5838 63.548 26.689V25.3565H61.833V39.4206H63.657V34.9925C63.7395 35.0654 63.8206 35.1328 63.8988 35.1987C64.1293 35.3863 64.3763 35.5525 64.6368 35.6952C64.8823 35.828 65.1434 35.9293 65.414 35.9968C65.6888 36.0616 65.9703 36.0941 66.2526 36.0936C66.8926 36.104 67.5264 35.9677 68.106 35.6952C68.6443 35.4341 69.114 35.0498 69.4771 34.5731C69.8597 34.0513 70.1396 33.461 70.3018 32.8339C70.4916 32.1013 70.5833 31.3466 70.5744 30.5897C70.5799 29.924 70.512 29.2598 70.3717 28.6092ZM68.5547 32.1438C68.4716 32.5596 68.3244 32.96 68.1186 33.3304C67.9379 33.6547 67.6848 33.9327 67.3792 34.1425C67.0661 34.3478 66.6976 34.4511 66.3239 34.4385C65.8514 34.4328 65.3931 34.2761 65.0156 33.991C64.5117 33.613 64.0567 33.1734 63.6612 32.6824V28.8167C63.893 28.5255 64.1442 28.2504 64.4132 27.9934C64.6388 27.7772 64.8835 27.5819 65.1442 27.4099C65.3449 27.2778 65.5633 27.1749 65.7928 27.1041C66.0023 27.0437 66.2191 27.0131 66.4371 27.013C66.8126 26.9974 67.1839 27.0978 67.5008 27.3005C67.793 27.5073 68.0297 27.7834 68.1898 28.1042C68.3809 28.4857 68.5119 28.8944 68.5784 29.3161C68.6595 29.8004 68.6998 30.2907 68.6986 30.7818C68.6964 31.2393 68.6468 31.6952 68.5505 32.1424L68.5547 32.1438Z" fill="#19181A"/>
<path d="M81.3504 28.6092C81.2211 28.0146 80.9842 27.4488 80.6515 26.94C80.3304 26.4555 79.8956 26.0576 79.3852 25.7815C78.5105 25.3557 77.5162 25.2457 76.5701 25.4701C76.2636 25.5476 75.9685 25.665 75.6924 25.8193C75.3986 25.9849 75.1206 26.1775 74.8621 26.3944C74.7531 26.4879 74.6413 26.5861 74.5267 26.689V25.3565H72.8047V39.4206H74.6301V34.9925C74.7112 35.0654 74.7923 35.1328 74.8705 35.1987C75.1013 35.386 75.3482 35.5522 75.6085 35.6952C75.854 35.828 76.1151 35.9293 76.3857 35.9968C76.6605 36.0616 76.942 36.0941 77.2243 36.0936C77.8647 36.1039 78.499 35.9677 79.0791 35.6952C79.617 35.4341 80.0862 35.0497 80.4488 34.5731C80.8324 34.0518 81.1124 33.4613 81.2735 32.8339C81.4657 32.1016 81.5597 31.3469 81.553 30.5897C81.5586 29.924 81.4906 29.2598 81.3504 28.6092ZM79.5333 32.1438C79.4502 32.5596 79.3031 32.96 79.0972 33.3304C78.9176 33.6551 78.6649 33.9332 78.3592 34.1425C78.0462 34.3478 77.6777 34.4511 77.3039 34.4385C76.8315 34.4328 76.3732 34.2761 75.9957 33.991C75.4914 33.6134 75.0364 33.1738 74.6413 32.6824V28.8167C74.8726 28.5255 75.1233 28.2504 75.3919 27.9934C75.6178 27.7775 75.8624 27.5823 76.1229 27.4099C76.3239 27.2775 76.5428 27.1746 76.7728 27.1041C76.9823 27.0437 77.1992 27.013 77.4172 27.013C77.7923 26.9974 78.1631 27.0977 78.4795 27.3005C78.7717 27.5073 79.0084 27.7834 79.1685 28.1042C79.36 28.4856 79.4915 28.8944 79.5585 29.3161C79.6384 29.8005 79.6782 30.2908 79.6773 30.7818C79.6746 31.2393 79.6245 31.6953 79.5277 32.1424L79.5333 32.1438Z" fill="#19181A"/>
<path d="M112.556 26.7922C112.155 26.3215 111.648 25.954 111.076 25.7206C110.43 25.467 109.741 25.3431 109.048 25.3559C108.32 25.3419 107.596 25.4814 106.925 25.7655C106.331 26.0261 105.805 26.4206 105.387 26.9185C104.97 27.4297 104.659 28.0203 104.475 28.6549C104.272 29.3523 104.172 30.0758 104.178 30.8023C104.169 31.5348 104.266 32.2646 104.465 32.9694C104.638 33.5868 104.94 34.1605 105.35 34.6525C105.753 35.1227 106.261 35.4907 106.833 35.7269C107.478 35.9854 108.168 36.1113 108.862 36.0972C109.588 36.1113 110.309 35.9702 110.977 35.6835C111.571 35.4186 112.097 35.0203 112.514 34.5193C112.931 34.0055 113.242 33.4145 113.431 32.78C113.638 32.0828 113.739 31.3586 113.733 30.6312C113.742 29.9016 113.643 29.1747 113.441 28.474C113.264 27.8583 112.963 27.2858 112.556 26.7922ZM111.834 30.7392C111.838 31.244 111.779 31.7473 111.658 32.2372C111.559 32.651 111.381 33.0416 111.133 33.3874C110.902 33.7019 110.598 33.9551 110.247 34.1252C109.821 34.3057 109.363 34.3973 108.9 34.3944C108.438 34.3915 107.981 34.2942 107.557 34.1083C107.209 33.9295 106.913 33.6644 106.697 33.3383C106.467 32.9794 106.306 32.5801 106.223 32.1615C106.123 31.6766 106.073 31.1825 106.075 30.6873C106.072 30.1854 106.131 29.685 106.251 29.1977C106.352 28.7826 106.53 28.3904 106.777 28.042C107.007 27.7253 107.311 27.4705 107.663 27.3C108.074 27.1111 108.523 27.019 108.975 27.0307C109.451 27.0136 109.924 27.1137 110.352 27.3224C110.7 27.5045 110.996 27.773 111.212 28.1023C111.441 28.4616 111.602 28.8607 111.685 29.2791C111.786 29.7592 111.836 30.2486 111.834 30.7392Z" fill="#19181A"/>
<path d="M55.5405 22.3433H53.3782L48.8496 36.0693H50.7002L51.7066 32.142H57.1521L58.1948 36.0693H60.0692L55.5405 22.3433ZM52.2866 30.4785L54.393 24.4542L56.5497 30.4785H52.2866Z" fill="#19181A"/>
<path d="M95.8527 30.5038C95.6626 30.0952 95.3997 29.7249 95.077 29.4111C94.7567 29.1028 94.3982 28.8369 94.0105 28.6201C93.6303 28.4069 93.2389 28.1993 92.8462 28.0197C92.4534 27.8402 92.076 27.6551 91.7043 27.4727C91.3671 27.3112 91.0473 27.1157 90.7496 26.8892C90.4954 26.6969 90.2789 26.4592 90.1109 26.1879C89.954 25.9104 89.8762 25.5951 89.8858 25.2762C89.8845 25.0364 89.9281 24.7985 90.0144 24.5749C90.0973 24.3622 90.2262 24.1705 90.3918 24.0138C90.5797 23.8417 90.8009 23.7104 91.0417 23.6281C91.3508 23.5231 91.6757 23.4728 92.002 23.4794C92.3458 23.4752 92.6882 23.5225 93.0181 23.6197C93.2883 23.7007 93.5508 23.8058 93.8022 23.9339C94.0273 24.0545 94.2216 24.1625 94.3613 24.2579L95.1161 22.6757C94.9729 22.5503 94.8129 22.4454 94.6409 22.3644C94.4047 22.2413 94.1588 22.1381 93.9057 22.0558C93.6245 21.962 93.3373 21.8875 93.0461 21.8328C92.7458 21.7745 92.4406 21.7449 92.1348 21.7444C91.5776 21.7389 91.023 21.8208 90.491 21.9871C90.0102 22.1361 89.5632 22.3787 89.1758 22.701C88.8066 23.0152 88.5119 23.4081 88.3134 23.8511C88.1049 24.3289 88.001 24.8459 88.0087 25.3674C87.9973 25.8841 88.0979 26.3971 88.3036 26.871C88.492 27.2808 88.753 27.6529 89.0737 27.9692C89.3904 28.2782 89.745 28.5455 90.129 28.7645C90.505 28.9819 90.8964 29.1853 91.2905 29.3719C91.6847 29.5584 92.0579 29.7366 92.4255 29.9175C92.759 30.0796 93.0759 30.2741 93.3717 30.4982C93.6248 30.69 93.8396 30.9279 94.0049 31.1995C94.1617 31.477 94.2396 31.7923 94.2299 32.1112C94.2358 32.4369 94.1725 32.7602 94.044 33.0594C93.9278 33.3241 93.7528 33.5587 93.5325 33.7453C93.2932 33.9415 93.0184 34.0896 92.7232 34.1815C92.379 34.2893 92.0201 34.3424 91.6595 34.3386C91.231 34.3457 90.8038 34.289 90.3918 34.1703C90.0638 34.0722 89.7445 33.9469 89.4371 33.7957C89.2137 33.6853 88.9976 33.5607 88.79 33.4227L88.414 35.3176C88.6676 35.4568 88.9317 35.5759 89.2037 35.6739C89.5471 35.7995 89.8994 35.8989 90.2576 35.9712C90.6749 36.056 91.0996 36.0979 91.5253 36.0961C92.1443 36.1017 92.7602 36.0099 93.3508 35.8239C93.8896 35.6536 94.3901 35.3791 94.824 35.016C95.2424 34.6611 95.5767 34.2168 95.8024 33.7158C96.0392 33.1746 96.1574 32.5886 96.149 31.9976C96.1609 31.4838 96.0597 30.9738 95.8527 30.5038Z" fill="#19181A"/>
<path d="M102.147 34.2727C102.043 34.3131 101.937 34.3468 101.829 34.3736C101.706 34.4037 101.58 34.4183 101.454 34.4171C100.895 34.4171 100.701 34.1871 100.607 34.0132C100.428 33.6864 100.339 33.1884 100.339 32.532V27.167H102.558V25.5231H100.341V23.5229L98.5159 24.3309V25.5231H97.5264V27.167H98.5159V32.7031C98.5099 33.1842 98.5597 33.6643 98.6641 34.1338C98.7503 34.5273 98.9242 34.8961 99.1729 35.2124C99.4171 35.5067 99.7336 35.732 100.091 35.866C100.503 36.012 100.938 36.0818 101.374 36.0722C101.527 36.0717 101.681 36.0624 101.833 36.0442C101.983 36.0266 102.132 36.0004 102.279 35.9656C102.415 35.9342 102.549 35.8901 102.677 35.8338L102.397 34.1661C102.328 34.1983 102.245 34.2334 102.147 34.2727Z" fill="#19181A"/>
<path d="M120.031 25.3574H119.954C119.727 25.3575 119.501 25.3848 119.28 25.4388C119.032 25.5041 118.795 25.6102 118.581 25.753C118.326 25.9286 118.091 26.1334 117.883 26.3631C117.81 26.4416 117.734 26.5272 117.656 26.6212V25.3588H115.894V36.0693H117.718V29.1585C117.957 28.7784 118.177 28.4572 118.375 28.1865C118.547 27.9496 118.741 27.7298 118.955 27.5301C119.098 27.3957 119.261 27.2841 119.438 27.1991C119.572 27.1377 119.717 27.1056 119.864 27.1051C119.906 27.1051 119.951 27.1051 120.004 27.1051L120.324 27.1289V25.3658L120.031 25.3574Z" fill="#19181A"/>
<path d="M129.164 33.7651C129.122 33.7819 129.078 33.8015 129.031 33.824C128.877 33.8955 128.677 33.9783 128.435 34.068C128.157 34.1683 127.871 34.2489 127.581 34.3093C127.219 34.385 126.85 34.4212 126.48 34.4173C125.991 34.4315 125.505 34.3481 125.049 34.1718C124.695 34.0259 124.384 33.7917 124.146 33.4916C123.901 33.1676 123.728 32.7951 123.638 32.3989C123.546 32.004 123.494 31.6008 123.482 31.1955H129.544C129.746 31.1915 129.942 31.1232 130.103 31.0005C130.317 30.8476 130.424 30.5937 130.424 30.2431V29.9948C130.427 29.4076 130.348 28.8229 130.192 28.257C130.043 27.7141 129.785 27.2074 129.435 26.7674C129.076 26.3277 128.622 25.9757 128.108 25.7379C127.503 25.4704 126.846 25.3401 126.185 25.3563C125.534 25.3488 124.888 25.4753 124.287 25.728C123.72 25.9728 123.216 26.3435 122.812 26.8123C122.391 27.3115 122.075 27.8906 121.881 28.515C121.659 29.2352 121.55 29.9858 121.559 30.7396C121.547 31.5087 121.65 32.2752 121.866 33.0133C122.051 33.6338 122.366 34.2076 122.79 34.6964C123.206 35.1599 123.727 35.5171 124.308 35.7386C124.957 35.9789 125.644 36.0964 126.336 36.085C126.767 36.087 127.197 36.0509 127.622 35.977C127.972 35.916 128.318 35.8359 128.659 35.7372C128.85 35.6796 129.018 35.6235 129.164 35.566V33.7651ZM123.683 28.7759C123.795 28.4426 123.967 28.133 124.192 27.8628C124.424 27.5852 124.716 27.364 125.045 27.2158C125.375 27.0676 125.733 26.9963 126.094 27.0072C126.917 27.0072 127.521 27.2471 127.941 27.7394C128.318 28.184 128.522 28.8012 128.549 29.5754H123.5C123.533 29.3033 123.595 29.0354 123.683 28.7759Z" fill="#19181A"/>
</svg>
