<svg width="212" height="65" viewBox="0 0 212 65" fill="none" xmlns="http://www.w3.org/2000/svg">
<rect x="1.12654" y="1.12654" width="209.715" height="62.622" rx="31.311" fill="#9AFF00"/>
<rect x="1.12654" y="1.12654" width="209.715" height="62.622" rx="31.311" stroke="#19181A" stroke-width="2.25308"/>
<path d="M53.8518 35.0259C52.8362 29.8476 57.3238 27.0814 57.6513 26.8877C57.0247 26.0431 56.2465 25.3233 55.3568 24.7651C52.6744 23.0886 49.4071 22.9321 47.4635 23.787L47.405 23.8124C46.4665 24.2228 45.4538 24.4346 44.4301 24.4346C43.4064 24.4346 42.3937 24.2228 41.4552 23.8124L41.3968 23.787C39.4473 22.9282 36.1859 23.0847 33.5034 24.7651C30.821 26.4456 28.2145 30.2291 29.5363 37.481C30.858 44.733 35.681 49.1484 35.681 49.1484C36.4259 49.7327 37.3151 50.1031 38.2534 50.2199C39.1918 50.3367 40.1441 50.1955 41.0088 49.8115C42.9037 48.9821 43.7673 48.8334 44.1474 48.849C44.3424 48.849 44.5237 48.849 44.7128 48.849C45.1027 48.849 45.9565 48.9821 47.8514 49.8115C48.7161 50.1955 49.6684 50.3367 50.6068 50.2199C51.5452 50.1031 52.4343 49.7327 53.1793 49.1484C53.1793 49.1484 56.5577 46.0574 58.4428 40.795C56.8209 40.0536 54.5146 38.4161 53.8518 35.0259Z" fill="#19181A"/>
<path d="M43.5761 23.5209C43.5761 23.5209 42.7281 16.2827 50.8476 14.9935L50.8144 15.9716C50.7475 17.904 49.9715 19.7436 48.6356 21.137C47.2996 22.5303 45.4978 23.3793 43.5761 23.5209Z" fill="#19181A"/>
<path d="M76.008 17.2237C76.0219 18.0224 75.9087 18.8181 75.6727 19.581C75.4749 20.2185 75.1371 20.8035 74.6843 21.2928C74.2342 21.7609 73.6816 22.1172 73.0702 22.3335C72.3317 22.5846 71.5552 22.7044 70.7757 22.6876H68.6917C68.5818 22.6833 68.4761 22.6443 68.3896 22.5761C68.3327 22.526 68.2888 22.4628 68.2617 22.3919C68.2345 22.321 68.2249 22.2446 68.2336 22.1692V12.5834C68.2249 12.5079 68.2345 12.4315 68.2617 12.3606C68.2888 12.2898 68.3327 12.2266 68.3896 12.1765C68.4762 12.1088 68.582 12.0704 68.6917 12.0669H70.916C71.6913 12.0455 72.4636 12.1702 73.193 12.4347C73.7851 12.6606 74.3184 13.0185 74.7526 13.4813C75.1796 13.9487 75.5019 14.5023 75.6981 15.105C75.916 15.7895 76.0207 16.5052 76.008 17.2237ZM74.9378 17.2726C74.943 16.6917 74.8642 16.1131 74.7039 15.555C74.564 15.0523 74.3187 14.5854 73.9845 14.1856C73.6489 13.7951 73.2279 13.4877 72.7544 13.2876C72.1503 13.0528 71.5051 12.943 70.8576 12.9648H69.2317V21.7897H70.8673C71.4868 21.8052 72.1044 21.7152 72.694 21.5236C73.1722 21.3597 73.6009 21.0763 73.9397 20.7C74.2915 20.2937 74.5474 19.8129 74.6882 19.2934C74.8646 18.6348 74.9473 17.9545 74.9339 17.2726H74.9378Z" fill="#19181A"/>
<path d="M84.7586 18.732C84.764 19.2848 84.6871 19.8354 84.5305 20.3655C84.3904 20.8385 84.1578 21.2787 83.8463 21.6605C83.5407 22.0308 83.1537 22.3248 82.7156 22.5193C81.7245 22.9178 80.6207 22.9289 79.6218 22.5506C79.2023 22.3805 78.8293 22.1122 78.534 21.7681C78.2315 21.4046 78.0083 20.9814 77.879 20.5259C77.7281 19.9895 77.6552 19.434 77.6626 18.8767C77.6576 18.324 77.7338 17.7736 77.8887 17.2432C78.0257 16.7713 78.2564 16.3321 78.5671 15.9521C78.8732 15.5847 79.2603 15.294 79.6978 15.103C80.1995 14.8906 80.7404 14.7873 81.2847 14.7998C81.803 14.7891 82.3184 14.8809 82.8014 15.0698C83.2197 15.2391 83.5909 15.5076 83.8833 15.8523C84.1845 16.2167 84.4075 16.6397 84.5384 17.0945C84.691 17.6266 84.7652 18.1783 84.7586 18.732ZM83.7293 18.8239C83.731 18.4183 83.6898 18.0137 83.6065 17.6169C83.5338 17.2566 83.3949 16.9129 83.1971 16.6035C83.0042 16.3097 82.7398 16.07 82.429 15.9071C82.0559 15.7235 81.6435 15.6348 81.2282 15.6488C80.833 15.6384 80.4408 15.7194 80.0819 15.8855C79.7722 16.039 79.5046 16.266 79.3021 16.5468C79.0889 16.8466 78.9347 17.1846 78.8479 17.5425C78.7477 17.9482 78.6986 18.3649 78.7017 18.7828C78.6999 19.1916 78.7411 19.5995 78.8245 19.9996C78.8947 20.3604 79.033 20.7044 79.2319 21.013C79.4247 21.305 79.6892 21.5422 80 21.7016C80.368 21.8652 80.7655 21.9511 81.1679 21.9542C81.5703 21.9572 81.969 21.8772 82.3394 21.7192C82.6491 21.5676 82.9169 21.3419 83.1191 21.0619C83.3334 20.7641 83.4877 20.4272 83.5734 20.0701C83.6769 19.6635 83.7293 19.2455 83.7293 18.8259V18.8239Z" fill="#19181A"/>
<path d="M96.6714 15.0815C96.6711 15.1139 96.6665 15.1462 96.6577 15.1774L96.6305 15.2947L94.3418 22.5232C94.3321 22.564 94.3103 22.6008 94.2794 22.6289C94.2446 22.6588 94.2042 22.6814 94.1605 22.6954C94.097 22.714 94.0316 22.7252 93.9656 22.7286C93.8856 22.7286 93.792 22.7286 93.6829 22.7286C93.5846 22.7298 93.4863 22.7252 93.3885 22.715C93.3226 22.7092 93.2573 22.6974 93.1935 22.6797C93.1491 22.6662 93.108 22.6435 93.0727 22.6132C93.0432 22.5871 93.0216 22.5532 93.0103 22.5154L91.2948 16.6583L91.2773 16.5918L91.2616 16.6583L89.6592 22.5154C89.6492 22.5569 89.6259 22.594 89.5929 22.6211C89.5532 22.6524 89.5074 22.6751 89.4584 22.6876C89.3901 22.7054 89.3202 22.7165 89.2498 22.7208C89.1679 22.7208 89.0763 22.7208 88.973 22.7208C88.8799 22.722 88.7868 22.7174 88.6942 22.7071C88.6283 22.7018 88.563 22.69 88.4993 22.6719C88.4551 22.6592 88.4143 22.6365 88.3803 22.6054C88.3533 22.578 88.3332 22.5445 88.3219 22.5076L86.0586 15.3045C86.0419 15.2683 86.0294 15.2302 86.0215 15.1911C86.0144 15.1582 86.0105 15.1248 86.0098 15.0913C86.009 15.0572 86.017 15.0235 86.0332 14.9935C86.0521 14.9638 86.0813 14.9422 86.1151 14.9328C86.1632 14.9172 86.2129 14.9074 86.2633 14.9035C86.3217 14.9035 86.3958 14.9035 86.4835 14.9035C86.5759 14.9025 86.6683 14.9064 86.7603 14.9152C86.8152 14.9195 86.8691 14.9321 86.9202 14.9524C86.9525 14.9657 86.9798 14.989 86.9982 15.0189C87.0155 15.0498 87.0293 15.0826 87.0391 15.1167L88.9886 21.5959L89.0042 21.6546L89.0217 21.5959L90.7957 15.1167C90.8043 15.0815 90.8195 15.0483 90.8406 15.0189C90.8613 14.9896 90.8896 14.9666 90.9224 14.9524C90.9691 14.933 91.0184 14.9205 91.0687 14.9152C91.1489 14.9065 91.2296 14.9026 91.3104 14.9035C91.3866 14.9026 91.4627 14.9065 91.5385 14.9152C91.5892 14.9213 91.639 14.9338 91.6866 14.9524C91.72 14.9657 91.7486 14.9889 91.7685 15.0189C91.7859 15.0498 91.7996 15.0826 91.8095 15.1167L93.7219 21.5959L93.7374 21.6546V21.5959L95.6967 15.1089C95.7067 15.0739 95.7225 15.0408 95.7434 15.0111C95.7645 14.9806 95.7945 14.9573 95.8292 14.9446C95.8799 14.9249 95.933 14.9124 95.9871 14.9074C96.0759 14.8986 96.1651 14.8947 96.2542 14.8956C96.34 14.8956 96.4121 14.8956 96.4667 14.8956C96.5119 14.8985 96.5562 14.9098 96.5973 14.9289C96.6251 14.941 96.6478 14.9625 96.6616 14.9896C96.6712 15.0192 96.6746 15.0505 96.6714 15.0815Z" fill="#19181A"/>
<path d="M104.559 22.5232C104.559 22.555 104.551 22.5863 104.534 22.6132C104.516 22.6429 104.488 22.6657 104.456 22.6778C104.409 22.6987 104.36 22.7125 104.309 22.7188C104.232 22.7318 104.154 22.7377 104.076 22.7364C103.995 22.7378 103.915 22.7319 103.836 22.7188C103.785 22.7125 103.735 22.6986 103.688 22.6778C103.656 22.6646 103.629 22.6421 103.61 22.6132C103.594 22.5857 103.586 22.5547 103.586 22.5232V18.1176C103.595 17.7417 103.559 17.366 103.479 16.9986C103.419 16.7349 103.311 16.4844 103.161 16.2592C103.023 16.0572 102.836 15.8936 102.617 15.7838C102.374 15.6662 102.107 15.6086 101.838 15.6156C101.429 15.6277 101.034 15.7687 100.709 16.0185C100.262 16.3533 99.8631 16.7483 99.5236 17.1923V22.5232C99.524 22.555 99.5152 22.5863 99.4982 22.6132C99.4805 22.6424 99.4539 22.665 99.4222 22.6778C99.375 22.6984 99.3251 22.7122 99.2741 22.7188C99.1942 22.732 99.1133 22.7379 99.0323 22.7364C98.9546 22.7376 98.877 22.7317 98.8003 22.7188C98.7481 22.7119 98.6969 22.6981 98.6483 22.6778C98.6159 22.6663 98.5889 22.6433 98.5722 22.6132C98.558 22.5854 98.5507 22.5545 98.5508 22.5232V15.1089C98.5507 15.0776 98.558 15.0467 98.5722 15.0189C98.5896 14.9879 98.6161 14.9633 98.6483 14.9484C98.6937 14.9268 98.7425 14.9129 98.7926 14.9074C98.867 14.8986 98.9418 14.8947 99.0167 14.8956C99.0929 14.8947 99.1691 14.8986 99.2448 14.9074C99.2938 14.9117 99.3415 14.9257 99.3852 14.9484C99.4144 14.9646 99.4381 14.9891 99.4534 15.0189C99.4676 15.0467 99.475 15.0776 99.4749 15.1089V16.1594C99.8266 15.7424 100.25 15.392 100.724 15.1245C101.099 14.9206 101.517 14.8111 101.943 14.8056C102.365 14.7924 102.785 14.8767 103.169 15.0521C103.488 15.2034 103.764 15.4312 103.974 15.7153C104.185 16.0084 104.336 16.341 104.417 16.6935C104.514 17.1353 104.559 17.587 104.551 18.0394L104.559 22.5232Z" fill="#19181A"/>
<path d="M108.227 22.5232C108.226 22.5549 108.217 22.5859 108.201 22.6132C108.183 22.6425 108.156 22.6651 108.123 22.6778C108.077 22.6987 108.028 22.7125 107.977 22.7188C107.897 22.7319 107.816 22.7378 107.735 22.7364C107.657 22.7376 107.579 22.7317 107.502 22.7188C107.45 22.7122 107.399 22.6983 107.351 22.6778C107.318 22.6669 107.29 22.6438 107.273 22.6132C107.26 22.5852 107.253 22.5543 107.254 22.5232V11.4643C107.253 11.4332 107.26 11.4023 107.273 11.3743C107.291 11.343 107.318 11.3188 107.351 11.3058C107.399 11.2835 107.45 11.2696 107.502 11.2647C107.579 11.2544 107.657 11.2498 107.735 11.2511C107.816 11.2497 107.897 11.2542 107.977 11.2647C108.028 11.2692 108.078 11.2831 108.123 11.3058C108.155 11.3206 108.183 11.3443 108.201 11.3743C108.217 11.4016 108.226 11.4326 108.227 11.4643V22.5232Z" fill="#19181A"/>
<path d="M117.499 18.7319C117.504 19.2849 117.426 19.8354 117.269 20.3654C117.129 20.8383 116.897 21.2785 116.587 21.6605C116.28 22.0308 115.893 22.3248 115.454 22.5193C114.956 22.7327 114.418 22.8374 113.877 22.8264C113.358 22.8374 112.842 22.7436 112.36 22.5506C111.941 22.38 111.569 22.1117 111.274 21.7681C110.971 21.405 110.748 20.9817 110.619 20.5258C110.468 19.9895 110.395 19.434 110.403 18.8767C110.397 18.3241 110.473 17.7737 110.627 17.2432C110.764 16.7712 110.995 16.332 111.305 15.952C111.612 15.5846 112 15.2939 112.438 15.103C112.94 14.8904 113.481 14.7871 114.025 14.7998C114.543 14.7889 115.057 14.8806 115.54 15.0697C115.959 15.2386 116.331 15.5071 116.624 15.8523C116.925 16.2163 117.147 16.6394 117.277 17.0945C117.431 17.6263 117.506 18.1781 117.499 18.7319ZM116.468 18.8239C116.469 18.4183 116.428 18.0137 116.345 17.6168C116.273 17.2566 116.135 16.913 115.937 16.6035C115.744 16.3096 115.48 16.07 115.169 15.907C114.796 15.7232 114.382 15.6345 113.966 15.6488C113.572 15.6386 113.18 15.7196 112.822 15.8855C112.512 16.038 112.244 16.2651 112.042 16.5467C111.829 16.8466 111.675 17.1846 111.588 17.5425C111.486 17.9479 111.437 18.3647 111.44 18.7828C111.438 19.1916 111.479 19.5995 111.563 19.9996C111.634 20.3602 111.773 20.704 111.972 21.013C112.165 21.305 112.429 21.5421 112.74 21.7016C113.108 21.8659 113.506 21.9523 113.908 21.9554C114.311 21.9584 114.709 21.878 115.08 21.7192C115.392 21.5681 115.663 21.3424 115.869 21.0619C116.083 20.7636 116.237 20.4269 116.323 20.07C116.423 19.6629 116.471 19.245 116.468 18.8258V18.8239Z" fill="#19181A"/>
<path d="M124.862 22.5232C124.863 22.5472 124.859 22.5712 124.85 22.5933C124.84 22.6153 124.826 22.6349 124.807 22.6504C124.767 22.6822 124.719 22.7043 124.669 22.7149C124.593 22.7309 124.515 22.7381 124.437 22.7364C124.357 22.7374 124.277 22.7302 124.199 22.7149C124.144 22.7057 124.092 22.6836 124.047 22.6504C124.029 22.6344 124.015 22.6147 124.006 22.5927C123.997 22.5708 123.993 22.547 123.994 22.5232V21.6937C123.683 22.0395 123.31 22.3235 122.895 22.531C122.508 22.7253 122.082 22.8264 121.649 22.8264C121.296 22.8315 120.944 22.78 120.606 22.6738C120.319 22.5847 120.054 22.4368 119.826 22.2396C119.614 22.0511 119.446 21.8171 119.335 21.5549C119.217 21.2692 119.159 20.9622 119.164 20.653C119.15 20.2888 119.233 19.9275 119.404 19.606C119.576 19.2846 119.829 19.0147 120.138 18.8239C120.482 18.6075 120.861 18.4532 121.257 18.368C121.735 18.2619 122.224 18.2107 122.714 18.2155H123.883V17.5758C123.887 17.2922 123.854 17.0093 123.784 16.7345C123.728 16.5087 123.619 16.2995 123.466 16.1242C123.31 15.9538 123.112 15.8265 122.893 15.7544C122.616 15.6658 122.326 15.6242 122.035 15.6312C121.737 15.6278 121.439 15.668 121.152 15.7505C120.916 15.8203 120.687 15.9099 120.466 16.0185C120.271 16.1164 120.107 16.2142 119.978 16.2846C119.898 16.3448 119.804 16.3856 119.706 16.4039C119.675 16.4044 119.644 16.3984 119.616 16.3863C119.587 16.3742 119.562 16.3529 119.546 16.3257C119.525 16.2903 119.511 16.2511 119.505 16.2103C119.496 16.1546 119.492 16.0983 119.493 16.042C119.49 15.95 119.499 15.8581 119.518 15.7681C119.542 15.6926 119.586 15.625 119.645 15.5725C119.754 15.4755 119.876 15.3939 120.008 15.3299C120.202 15.2298 120.402 15.1435 120.608 15.0717C120.847 14.9883 121.092 14.9229 121.341 14.8761C121.598 14.828 121.859 14.8038 122.121 14.8037C122.556 14.7925 122.989 14.8546 123.404 14.9876C123.724 15.0925 124.015 15.2745 124.25 15.5177C124.472 15.7575 124.631 16.0494 124.712 16.3668C124.81 16.7394 124.857 17.1238 124.852 17.5092L124.862 22.5232ZM123.887 19.0195H122.538C122.191 19.0142 121.845 19.0503 121.507 19.1271C121.245 19.1843 120.996 19.2898 120.772 19.4381C120.587 19.5624 120.436 19.7321 120.335 19.9311C120.236 20.1351 120.187 20.3597 120.191 20.5865C120.183 20.7758 120.214 20.9647 120.284 21.1408C120.354 21.3168 120.461 21.476 120.596 21.6077C120.913 21.8789 121.322 22.0157 121.737 21.9891C122.118 21.9907 122.492 21.8872 122.819 21.6898C123.218 21.4363 123.578 21.1252 123.887 20.7665V19.0195Z" fill="#19181A"/>
<path d="M133.527 22.5232C133.528 22.5569 133.522 22.5904 133.508 22.621C133.491 22.6507 133.465 22.6741 133.434 22.6875C133.391 22.7053 133.345 22.7172 133.299 22.7228C133.232 22.7331 133.163 22.7377 133.095 22.7365C133.022 22.7378 132.95 22.7332 132.878 22.7228C132.831 22.7174 132.784 22.7055 132.74 22.6875C132.707 22.6725 132.679 22.6496 132.658 22.621C132.638 22.5924 132.628 22.5581 132.629 22.5232V21.457C132.276 21.8519 131.865 22.1903 131.41 22.4606C130.996 22.7027 130.525 22.829 130.046 22.8264C129.572 22.8409 129.102 22.7331 128.681 22.5134C128.311 22.3111 127.995 22.0218 127.761 21.6703C127.513 21.2884 127.337 20.864 127.242 20.4182C127.131 19.9187 127.076 19.4081 127.079 18.8962C127.072 18.3224 127.141 17.7501 127.283 17.1943C127.401 16.7291 127.606 16.2908 127.888 15.9031C128.147 15.5537 128.486 15.2719 128.876 15.0815C129.304 14.8842 129.77 14.7865 130.241 14.7959C130.668 14.7913 131.089 14.8942 131.467 15.0952C131.877 15.3265 132.247 15.6247 132.56 15.9775V11.5054C132.56 11.4741 132.568 11.4432 132.582 11.4154C132.599 11.3848 132.627 11.3617 132.66 11.3508C132.708 11.3303 132.758 11.3164 132.81 11.3098C132.887 11.2968 132.966 11.2909 133.044 11.2921C133.125 11.2909 133.206 11.2968 133.286 11.3098C133.336 11.3161 133.385 11.3299 133.432 11.3508C133.464 11.364 133.491 11.3865 133.51 11.4154C133.526 11.4427 133.534 11.4738 133.533 11.5054L133.527 22.5232ZM132.553 17.1669C132.217 16.7348 131.823 16.351 131.383 16.0264C131.036 15.7757 130.62 15.639 130.192 15.6351C129.851 15.6262 129.515 15.721 129.229 15.907C128.958 16.091 128.734 16.3354 128.574 16.6211C128.4 16.933 128.276 17.2703 128.205 17.6208C128.13 17.9935 128.092 18.373 128.092 18.7534C128.092 19.1545 128.124 19.555 128.19 19.9507C128.247 20.3118 128.36 20.6617 128.525 20.9875C128.672 21.2793 128.888 21.5305 129.155 21.7192C129.444 21.9088 129.784 22.0045 130.129 21.9931C130.323 21.9935 130.517 21.9658 130.703 21.9109C130.905 21.848 131.097 21.7571 131.274 21.6409C131.492 21.4977 131.697 21.3339 131.884 21.1519C132.123 20.9189 132.348 20.6713 132.557 20.4104L132.553 17.1669Z" fill="#19181A"/>
<path d="M146.589 18.7319C146.594 19.2848 146.517 19.8353 146.361 20.3654C146.22 20.838 145.989 21.2781 145.678 21.6605C145.372 22.0303 144.984 22.3242 144.546 22.5193C144.048 22.7326 143.51 22.8373 142.969 22.8265C142.45 22.8376 141.934 22.7438 141.452 22.5506C141.033 22.38 140.66 22.1118 140.364 21.7681C140.062 21.4049 139.839 20.9816 139.711 20.5259C139.559 19.9898 139.485 19.4342 139.493 18.8767C139.488 18.324 139.564 17.7736 139.719 17.2432C139.856 16.7712 140.087 16.332 140.397 15.952C140.704 15.5846 141.092 15.2939 141.53 15.103C142.031 14.8906 142.571 14.7872 143.115 14.7998C143.633 14.7889 144.149 14.8806 144.632 15.0698C145.05 15.2391 145.421 15.5076 145.713 15.8523C146.015 16.2162 146.238 16.6393 146.368 17.0945C146.521 17.6266 146.595 18.1783 146.589 18.7319ZM145.559 18.8239C145.561 18.4183 145.52 18.0137 145.437 17.6168C145.364 17.2565 145.225 16.9129 145.027 16.6035C144.834 16.3097 144.57 16.07 144.259 15.9071C143.886 15.7235 143.474 15.6348 143.058 15.6488C142.664 15.6384 142.272 15.7194 141.914 15.8855C141.604 16.0387 141.336 16.2658 141.134 16.5467C140.922 16.8471 140.768 17.1849 140.68 17.5425C140.58 17.9482 140.531 18.3649 140.534 18.7828C140.532 19.1916 140.573 19.5995 140.657 19.9996C140.728 20.3599 140.867 20.7035 141.064 21.013C141.258 21.305 141.523 21.5422 141.834 21.7016C142.208 21.8833 142.62 21.9706 143.035 21.9559C143.429 21.9661 143.821 21.8851 144.179 21.7192C144.488 21.5668 144.756 21.3412 144.959 21.0619C145.172 20.7635 145.325 20.4267 145.411 20.07C145.513 19.6633 145.563 19.2452 145.559 18.8258V18.8239Z" fill="#19181A"/>
<path d="M154.766 22.5233C154.766 22.5548 154.758 22.5858 154.743 22.6132C154.724 22.6426 154.697 22.6652 154.665 22.6778C154.618 22.6987 154.569 22.7125 154.519 22.7189C154.441 22.7317 154.363 22.7376 154.285 22.7365C154.204 22.7377 154.123 22.7319 154.043 22.7189C153.992 22.7125 153.943 22.6987 153.897 22.6778C153.864 22.6652 153.837 22.6426 153.819 22.6132C153.803 22.5858 153.795 22.5548 153.795 22.5233V18.1177C153.803 17.7418 153.767 17.3662 153.688 16.9987C153.628 16.7345 153.519 16.4838 153.368 16.2592C153.231 16.0569 153.045 15.8932 152.826 15.7838C152.583 15.6668 152.316 15.6091 152.047 15.6156C151.638 15.6273 151.244 15.7684 150.92 16.0186C150.473 16.3533 150.074 16.7483 149.735 17.1924V22.5233C149.734 22.5549 149.725 22.5859 149.709 22.6132C149.691 22.6426 149.663 22.6652 149.631 22.6778C149.585 22.6987 149.536 22.7125 149.485 22.7189C149.405 22.7319 149.324 22.7378 149.243 22.7365C149.166 22.7376 149.088 22.7317 149.011 22.7189C148.959 22.7121 148.908 22.6983 148.859 22.6778C148.826 22.6669 148.798 22.6439 148.781 22.6132C148.768 22.5852 148.761 22.5544 148.762 22.5233V15.1089C148.761 15.0778 148.768 15.0469 148.781 15.0189C148.799 14.9875 148.826 14.9627 148.859 14.9485C148.904 14.9271 148.952 14.9132 149.002 14.9074C149.077 14.8986 149.152 14.8947 149.228 14.8957C149.304 14.8948 149.38 14.8987 149.456 14.9074C149.504 14.9114 149.551 14.9254 149.594 14.9485C149.624 14.9646 149.648 14.9891 149.664 15.0189C149.679 15.0468 149.686 15.0776 149.686 15.1089V16.1594C150.037 15.742 150.46 15.3915 150.935 15.1246C151.31 14.9206 151.728 14.8112 152.154 14.8057C152.576 14.7926 152.995 14.877 153.38 15.0522C153.698 15.2043 153.974 15.4319 154.185 15.7153C154.396 16.0085 154.546 16.3412 154.626 16.6935C154.723 17.1353 154.768 17.5871 154.76 18.0394L154.766 22.5233Z" fill="#19181A"/>
<path d="M164.819 22.0791C164.821 22.1733 164.811 22.2673 164.79 22.3589C164.775 22.4218 164.744 22.4798 164.7 22.5271C164.647 22.5752 164.587 22.6137 164.521 22.6406C164.432 22.68 164.34 22.7108 164.246 22.7325C164.138 22.757 164.03 22.7759 163.92 22.7893C163.809 22.8024 163.697 22.809 163.585 22.8088C163.268 22.8169 162.952 22.7672 162.653 22.6621C162.407 22.5714 162.19 22.4168 162.023 22.2141C161.849 21.9921 161.727 21.7333 161.667 21.457C161.589 21.1012 161.552 20.7375 161.557 20.3732V15.7544H160.454C160.418 15.756 160.382 15.7473 160.35 15.7293C160.318 15.7113 160.292 15.6848 160.275 15.6527C160.224 15.5587 160.201 15.4522 160.208 15.3456C160.207 15.28 160.213 15.2145 160.224 15.1499C160.233 15.1035 160.25 15.0591 160.275 15.0189C160.292 14.9868 160.318 14.9603 160.35 14.9423C160.382 14.9243 160.418 14.9156 160.454 14.9172H161.557V13.0958C161.557 13.0647 161.563 13.0339 161.577 13.0058C161.595 12.9749 161.622 12.9503 161.655 12.9354C161.703 12.9133 161.754 12.8995 161.807 12.8943C161.884 12.8858 161.961 12.8818 162.039 12.8826C162.12 12.8816 162.2 12.8856 162.281 12.8943C162.332 12.8988 162.381 12.9127 162.427 12.9354C162.459 12.9513 162.486 12.9757 162.505 13.0058C162.522 13.0327 162.531 13.064 162.53 13.0958V14.9172H164.573C164.61 14.9156 164.646 14.9243 164.677 14.9423C164.709 14.9603 164.735 14.9868 164.753 15.0189C164.777 15.0591 164.794 15.1035 164.803 15.1499C164.815 15.2145 164.82 15.28 164.819 15.3456C164.826 15.4527 164.802 15.5595 164.749 15.6527C164.732 15.6842 164.706 15.7103 164.675 15.7283C164.644 15.7462 164.609 15.7552 164.573 15.7544H162.53V20.2422C162.505 20.6846 162.588 21.1264 162.772 21.5294C162.932 21.8242 163.224 21.9722 163.649 21.9735C163.769 21.9747 163.889 21.9609 164.006 21.9324C164.101 21.9076 164.195 21.8776 164.287 21.8424C164.369 21.8092 164.439 21.7798 164.495 21.7524C164.542 21.7277 164.594 21.7137 164.647 21.7113C164.673 21.7105 164.698 21.7158 164.721 21.727C164.745 21.7409 164.764 21.7622 164.774 21.7876C164.789 21.8249 164.8 21.8636 164.807 21.9031C164.816 21.9613 164.82 22.0202 164.819 22.0791Z" fill="#19181A"/>
<path d="M172.754 22.5232C172.754 22.5547 172.746 22.5857 172.731 22.6132C172.713 22.6425 172.685 22.6651 172.653 22.6778C172.607 22.6987 172.557 22.7125 172.507 22.7188C172.43 22.7317 172.351 22.7376 172.273 22.7364C172.192 22.7377 172.111 22.7318 172.031 22.7188C171.981 22.7125 171.931 22.6987 171.885 22.6778C171.853 22.6651 171.825 22.6425 171.807 22.6132C171.791 22.5859 171.782 22.5549 171.782 22.5232V18.1176C171.79 17.7418 171.755 17.3662 171.676 16.9986C171.616 16.7345 171.508 16.4838 171.357 16.2592C171.219 16.0568 171.033 15.8932 170.815 15.7838C170.572 15.6667 170.304 15.6091 170.035 15.6155C169.626 15.6273 169.232 15.7683 168.908 16.0185C168.461 16.3533 168.062 16.7483 167.723 17.1923V22.5232C167.722 22.5549 167.714 22.5859 167.698 22.6132C167.679 22.6425 167.652 22.6651 167.62 22.6778C167.573 22.6987 167.524 22.7125 167.473 22.7188C167.393 22.7319 167.313 22.7378 167.232 22.7364C167.154 22.7376 167.076 22.7317 167 22.7188C166.947 22.7121 166.896 22.6983 166.848 22.6778C166.814 22.6669 166.787 22.6438 166.77 22.6132C166.756 22.5852 166.749 22.5543 166.75 22.5232V11.4643C166.749 11.4332 166.756 11.4023 166.77 11.3743C166.787 11.343 166.814 11.3188 166.848 11.3058C166.895 11.2835 166.947 11.2696 167 11.2647C167.076 11.2544 167.154 11.2498 167.232 11.2511C167.312 11.2497 167.393 11.2542 167.473 11.2647C167.524 11.2692 167.574 11.2831 167.62 11.3058C167.652 11.3206 167.679 11.3443 167.698 11.3743C167.714 11.4016 167.722 11.4326 167.723 11.4643V16.0987C168.065 15.704 168.474 15.3729 168.931 15.1206C169.304 14.919 169.719 14.8109 170.142 14.8056C170.564 14.7926 170.984 14.8769 171.368 15.0521C171.686 15.2042 171.963 15.4319 172.173 15.7153C172.384 16.0085 172.534 16.3411 172.614 16.6934C172.711 17.1353 172.756 17.587 172.749 18.0394L172.754 22.5232Z" fill="#19181A"/>
<path d="M181.485 18.4346C181.493 18.51 181.484 18.5864 181.457 18.6573C181.429 18.7282 181.386 18.7914 181.329 18.8415C181.242 18.9092 181.136 18.9475 181.026 18.951H175.983C175.979 19.371 176.024 19.7899 176.118 20.1992C176.196 20.5458 176.347 20.8715 176.562 21.1538C176.778 21.4225 177.058 21.6312 177.377 21.7603C177.768 21.9125 178.185 21.985 178.603 21.9735C178.913 21.9763 179.222 21.9461 179.525 21.8835C179.765 21.8345 180.002 21.7692 180.233 21.6879C180.428 21.6136 180.596 21.547 180.724 21.4923C180.809 21.445 180.901 21.4144 180.997 21.4023C181.029 21.4016 181.06 21.4105 181.087 21.4277C181.116 21.4459 181.139 21.4725 181.153 21.504C181.171 21.5479 181.184 21.5939 181.19 21.6409C181.198 21.7058 181.202 21.7712 181.202 21.8366C181.205 21.8737 181.205 21.911 181.202 21.9481C181.197 21.9812 181.19 22.0139 181.18 22.0459C181.173 22.0765 181.161 22.1056 181.143 22.132C181.126 22.1621 181.104 22.1898 181.079 22.2141C181.001 22.2725 180.916 22.3211 180.826 22.3589C180.646 22.4414 180.46 22.5101 180.27 22.5643C180.008 22.64 179.742 22.7014 179.473 22.7482C179.151 22.8046 178.825 22.8321 178.498 22.8304C177.98 22.8399 177.464 22.7523 176.977 22.5721C176.552 22.4107 176.17 22.1491 175.866 21.8092C175.551 21.4463 175.318 21.0191 175.184 20.5572C175.019 19.9959 174.94 19.4128 174.95 18.8278C174.941 18.2551 175.023 17.6847 175.192 17.1376C175.333 16.6722 175.568 16.2408 175.882 15.8699C176.178 15.5251 176.549 15.2527 176.966 15.0737C177.412 14.8864 177.892 14.7932 178.375 14.7998C178.864 14.7859 179.35 14.8807 179.798 15.0776C180.176 15.2497 180.51 15.5067 180.773 15.8288C181.032 16.1518 181.221 16.5247 181.331 16.9243C181.449 17.3517 181.508 17.7934 181.506 18.237L181.485 18.4346ZM180.479 18.149C180.494 17.3664 180.314 16.7509 179.939 16.3022C179.562 15.8601 179.015 15.6371 178.295 15.6371C177.959 15.6305 177.625 15.7021 177.321 15.8464C177.049 15.9802 176.807 16.1687 176.611 16.4C176.413 16.6361 176.262 16.9076 176.165 17.2002C176.06 17.5063 176 17.8258 175.985 18.149H180.479Z" fill="#19181A"/>
<path d="M98.1495 38.5472C97.9709 37.7174 97.6404 36.9281 97.1747 36.2192C96.7274 35.543 96.1208 34.988 95.4085 34.6034C94.1886 34.0095 92.8018 33.8561 91.4823 34.1691C91.0554 34.2772 90.6445 34.441 90.26 34.6562C89.8497 34.8862 89.4619 35.1548 89.102 35.4583C88.95 35.5854 88.794 35.7224 88.6322 35.8691V34.0106H86.2402V53.6263H88.7843V47.4503C88.8993 47.5521 89.0124 47.6459 89.1215 47.7379C89.443 47.9996 89.7875 48.2314 90.1509 48.4304C90.4932 48.6156 90.8574 48.7569 91.2348 48.851C91.6181 48.9415 92.0106 48.9868 92.4044 48.986C93.297 49.0005 94.181 48.8105 94.9894 48.4304C95.7402 48.0663 96.3953 47.5302 96.9018 46.8654C97.4354 46.1375 97.8258 45.3142 98.052 44.4396C98.3167 43.4178 98.4445 42.3652 98.4321 41.3095C98.4399 40.3811 98.3451 39.4547 98.1495 38.5472ZM95.6152 43.4771C95.4993 44.0571 95.2941 44.6155 95.0069 45.1321C94.7549 45.5845 94.4019 45.9722 93.9757 46.2648C93.5391 46.5511 93.0251 46.6953 92.5038 46.6776C91.8449 46.6698 91.2057 46.4511 90.6791 46.0535C89.9763 45.5263 89.3417 44.9132 88.7901 44.2283V38.8368C89.1133 38.4305 89.4637 38.0468 89.8389 37.6884C90.1536 37.3868 90.4949 37.1145 90.8585 36.8746C91.1385 36.6904 91.443 36.5468 91.7631 36.4481C92.0552 36.3639 92.3577 36.3211 92.6617 36.321C93.1855 36.2993 93.7033 36.4393 94.1453 36.722C94.5529 37.0104 94.883 37.3955 95.1064 37.843C95.3728 38.375 95.5556 38.9451 95.6483 39.5332C95.7614 40.2087 95.8175 40.8926 95.816 41.5775C95.8129 42.2155 95.7436 42.8515 95.6093 43.4751L95.6152 43.4771Z" fill="#19181A"/>
<path d="M113.462 38.5472C113.282 37.718 112.951 36.9289 112.487 36.2192C112.039 35.5434 111.433 34.9885 110.721 34.6034C109.501 34.0095 108.114 33.8561 106.795 34.1691C106.367 34.2772 105.956 34.4409 105.571 34.6562C105.161 34.8872 104.773 35.1557 104.413 35.4583C104.261 35.5887 104.105 35.7256 103.945 35.8691V34.0106H101.543V53.6263H104.089V47.4503C104.202 47.5521 104.315 47.6459 104.424 47.7379C104.746 47.9991 105.091 48.2309 105.454 48.4304C105.796 48.6156 106.16 48.7569 106.537 48.851C106.921 48.9415 107.313 48.9868 107.707 48.986C108.6 49.0005 109.485 48.8105 110.294 48.4304C111.044 48.0662 111.699 47.5301 112.205 46.8654C112.739 46.1383 113.13 45.3148 113.355 44.4396C113.623 43.4183 113.754 42.3656 113.745 41.3095C113.752 40.3811 113.658 39.4547 113.462 38.5472ZM110.928 43.4771C110.812 44.0571 110.607 44.6155 110.319 45.1321C110.069 45.585 109.716 45.9728 109.29 46.2648C108.854 46.5511 108.34 46.6953 107.818 46.6776C107.159 46.6698 106.52 46.4511 105.994 46.0535C105.29 45.5269 104.656 44.9137 104.105 44.2283V38.8368C104.427 38.4306 104.777 38.0469 105.151 37.6884C105.467 37.3873 105.808 37.115 106.171 36.8746C106.451 36.6899 106.757 36.5463 107.077 36.4481C107.37 36.3638 107.672 36.321 107.976 36.321C108.499 36.2992 109.017 36.4392 109.458 36.722C109.865 37.0104 110.196 37.3955 110.419 37.843C110.686 38.3749 110.869 38.945 110.963 39.5332C111.074 40.2089 111.13 40.8927 111.128 41.5775C111.125 42.2156 111.055 42.8516 110.92 43.4751L110.928 43.4771Z" fill="#19181A"/>
<path d="M156.987 36.0138C156.427 35.3572 155.719 34.8447 154.922 34.5192C154.022 34.1654 153.06 33.9926 152.093 34.0105C151.077 33.9909 150.069 34.1855 149.132 34.5818C148.304 34.9452 147.57 35.4955 146.988 36.1899C146.405 36.9029 145.972 37.7267 145.715 38.6118C145.432 39.5844 145.292 40.5936 145.302 41.6068C145.289 42.6284 145.424 43.6464 145.701 44.6293C145.943 45.4905 146.363 46.2906 146.935 46.9769C147.498 47.6325 148.206 48.1459 149.004 48.4754C149.903 48.8358 150.866 49.0114 151.834 48.9918C152.847 49.0114 153.852 48.8147 154.784 48.4147C155.613 48.0453 156.347 47.4898 156.928 46.791C157.509 46.0744 157.943 45.2501 158.207 44.3652C158.495 43.3927 158.637 42.3826 158.628 41.3682C158.64 40.3506 158.503 39.3368 158.221 38.3594C157.974 37.5007 157.554 36.7022 156.987 36.0138ZM155.979 41.5188C155.985 42.2228 155.902 42.9248 155.733 43.6081C155.595 44.1853 155.347 44.7301 155.002 45.2123C154.679 45.6509 154.255 46.0041 153.766 46.2413C153.172 46.4931 152.533 46.6208 151.887 46.6168C151.242 46.6128 150.605 46.477 150.013 46.2178C149.529 45.9684 149.116 45.5986 148.814 45.1438C148.493 44.6432 148.269 44.0864 148.154 43.5025C148.014 42.8262 147.945 42.1371 147.947 41.4464C147.943 40.7463 148.025 40.0484 148.193 39.3688C148.333 38.7898 148.582 38.2429 148.926 37.7569C149.247 37.3152 149.671 36.9598 150.162 36.722C150.735 36.4585 151.361 36.33 151.992 36.3464C152.656 36.3225 153.315 36.4622 153.912 36.7533C154.398 37.0072 154.811 37.3816 155.111 37.841C155.431 38.3421 155.655 38.8987 155.772 39.4823C155.913 40.1519 155.982 40.8345 155.979 41.5188Z" fill="#19181A"/>
<path d="M77.4629 29.8085H74.4471L68.1309 48.9528H70.7119L72.1156 43.4751H79.7106L81.1649 48.9528H83.7792L77.4629 29.8085ZM72.9246 41.155L75.8624 32.7527L78.8704 41.155H72.9246Z" fill="#19181A"/>
<path d="M133.69 41.1902C133.424 40.6203 133.058 40.1039 132.608 39.6662C132.161 39.2361 131.661 38.8653 131.12 38.5629C130.59 38.2655 130.044 37.976 129.496 37.7256C128.948 37.4752 128.422 37.2169 127.904 36.9626C127.433 36.7374 126.987 36.4647 126.572 36.1488C126.218 35.8806 125.916 35.549 125.681 35.1707C125.462 34.7837 125.354 34.3438 125.367 33.8991C125.365 33.5646 125.426 33.2328 125.547 32.9209C125.662 32.6242 125.842 32.3569 126.073 32.1384C126.335 31.8984 126.644 31.7152 126.98 31.6004C127.411 31.454 127.864 31.3838 128.319 31.3931C128.798 31.3872 129.276 31.4531 129.736 31.5887C130.113 31.7016 130.479 31.8483 130.83 32.0269C131.144 32.1951 131.415 32.3458 131.61 32.4788L132.662 30.2721C132.463 30.0971 132.239 29.9509 131.999 29.8378C131.67 29.6661 131.327 29.5222 130.974 29.4074C130.582 29.2766 130.181 29.1727 129.775 29.0964C129.356 29.015 128.931 28.9738 128.504 28.9731C127.727 28.9655 126.953 29.0796 126.211 29.3116C125.541 29.5194 124.917 29.8577 124.377 30.3073C123.862 30.7455 123.451 31.2936 123.174 31.9115C122.884 32.5778 122.739 33.2989 122.749 34.0262C122.733 34.7469 122.874 35.4625 123.161 36.1234C123.423 36.6949 123.787 37.2139 124.235 37.6551C124.676 38.0861 125.171 38.4589 125.707 38.7644C126.231 39.0676 126.777 39.3513 127.327 39.6114C127.876 39.8716 128.397 40.1201 128.91 40.3724C129.375 40.5986 129.817 40.8698 130.229 41.1823C130.582 41.4499 130.882 41.7817 131.112 42.1605C131.331 42.5475 131.44 42.9874 131.426 43.4321C131.435 43.8864 131.346 44.3372 131.167 44.7545C131.005 45.1237 130.761 45.4509 130.454 45.7112C130.12 45.9849 129.736 46.1915 129.325 46.3196C128.845 46.47 128.344 46.5439 127.841 46.5387C127.243 46.5486 126.648 46.4695 126.073 46.3039C125.616 46.1672 125.17 45.9925 124.742 45.7816C124.43 45.6276 124.129 45.4538 123.839 45.2612L123.315 47.9042C123.668 48.0983 124.037 48.2644 124.416 48.4011C124.895 48.5762 125.386 48.7149 125.886 48.8158C126.468 48.9341 127.06 48.9924 127.654 48.9899C128.517 48.9978 129.376 48.8698 130.2 48.6104C130.952 48.3728 131.65 47.99 132.255 47.4836C132.838 46.9885 133.305 46.3689 133.619 45.6701C133.95 44.9152 134.115 44.098 134.103 43.2736C134.119 42.5571 133.978 41.8457 133.69 41.1902Z" fill="#19181A"/>
<path d="M142.468 46.4467C142.323 46.5031 142.175 46.5502 142.024 46.5876C141.853 46.6294 141.677 46.6498 141.501 46.6482C140.722 46.6482 140.451 46.3274 140.32 46.0848C140.07 45.629 139.946 44.9345 139.946 44.019V36.5362H143.041V34.2434H139.95V31.4537L137.404 32.5805V34.2434H136.023V36.5362H137.404V44.2576C137.395 44.9286 137.465 45.5982 137.61 46.253C137.73 46.8019 137.973 47.3162 138.32 47.7574C138.661 48.1679 139.102 48.4821 139.601 48.6691C140.175 48.8726 140.781 48.97 141.39 48.9566C141.604 48.9559 141.817 48.9429 142.03 48.9175C142.239 48.893 142.447 48.8564 142.652 48.808C142.842 48.7641 143.028 48.7026 143.207 48.6241L142.817 46.298C142.72 46.343 142.605 46.3919 142.468 46.4467Z" fill="#19181A"/>
<path d="M167.411 34.0125H167.304C166.987 34.0127 166.672 34.0508 166.364 34.126C166.017 34.2171 165.688 34.3652 165.389 34.5642C165.033 34.8092 164.706 35.0948 164.415 35.4152C164.313 35.5248 164.208 35.6441 164.099 35.7752V34.0145H161.641V48.9527H164.185V39.3141C164.518 38.7839 164.826 38.3359 165.101 37.9584C165.341 37.628 165.612 37.3214 165.91 37.0428C166.11 36.8555 166.338 36.6998 166.584 36.5812C166.771 36.4955 166.974 36.4508 167.179 36.4501C167.237 36.4501 167.3 36.4501 167.374 36.4501L167.82 36.4833V34.0243L167.411 34.0125Z" fill="#19181A"/>
<path d="M180.149 45.7385C180.091 45.762 180.03 45.7894 179.964 45.8207C179.75 45.9205 179.471 46.0359 179.134 46.1611C178.745 46.301 178.347 46.4134 177.942 46.4976C177.437 46.6032 176.922 46.6537 176.406 46.6482C175.725 46.6681 175.046 46.5517 174.41 46.3058C173.917 46.1023 173.483 45.7757 173.151 45.357C172.81 44.9053 172.568 44.3857 172.443 43.8331C172.315 43.2823 172.242 42.72 172.225 42.1546H180.68C180.962 42.149 181.235 42.0538 181.459 41.8827C181.758 41.6694 181.908 41.3154 181.908 40.8263V40.48C181.911 39.661 181.802 38.8455 181.584 38.0562C181.376 37.2991 181.016 36.5923 180.527 35.9786C180.027 35.3654 179.395 34.8744 178.677 34.5427C177.833 34.1696 176.917 33.9879 175.995 34.0106C175.087 34.0001 174.186 34.1765 173.348 34.529C172.557 34.8703 171.854 35.3874 171.291 36.0412C170.704 36.7376 170.263 37.5452 169.993 38.4161C169.683 39.4206 169.531 40.4674 169.542 41.5188C169.526 42.5915 169.67 43.6605 169.971 44.69C170.23 45.5554 170.669 46.3557 171.26 47.0375C171.84 47.6839 172.566 48.1822 173.377 48.491C174.282 48.8263 175.241 48.9901 176.206 48.9742C176.807 48.977 177.407 48.9266 177.999 48.8236C178.487 48.7385 178.97 48.6268 179.446 48.4891C179.713 48.4089 179.947 48.3306 180.149 48.2504V45.7385ZM172.505 38.78C172.662 38.3151 172.902 37.8833 173.215 37.5064C173.539 37.1192 173.946 36.8107 174.405 36.604C174.865 36.3973 175.365 36.2979 175.868 36.3131C177.017 36.3131 177.859 36.6476 178.444 37.3343C178.97 37.9544 179.254 38.8152 179.292 39.8951H172.25C172.297 39.5155 172.382 39.1418 172.505 38.78Z" fill="#19181A"/>
</svg>
