<svg width="12" height="8" viewBox="0 0 12 8" fill="none" xmlns="http://www.w3.org/2000/svg">
<path d="M0.469402 2.03183L5.4694 7.03183C5.53908 7.10175 5.62187 7.15723 5.71304 7.19508C5.8042 7.23294 5.90194 7.25242 6.00065 7.25242C6.09936 7.25242 6.1971 7.23294 6.28827 7.19508C6.37943 7.15723 6.46222 7.10175 6.5319 7.03183L11.5319 2.03183C11.6728 1.89094 11.752 1.69984 11.752 1.50058C11.752 1.30133 11.6728 1.11023 11.5319 0.969333C11.391 0.828437 11.1999 0.749282 11.0007 0.749282C10.8014 0.749282 10.6103 0.828437 10.4694 0.969333L6.00003 5.43871L1.53065 0.968708C1.38976 0.827811 1.19866 0.748656 0.999403 0.748656C0.800145 0.748656 0.609049 0.827811 0.468153 0.968708C0.327257 1.1096 0.2481 1.3007 0.2481 1.49996C0.2481 1.69921 0.327257 1.89031 0.468153 2.03121L0.469402 2.03183Z" fill="#9AFF00"/>
</svg>
