<svg width="1110" height="1349" viewBox="0 0 1110 1349" fill="none" xmlns="http://www.w3.org/2000/svg">
<g filter="url(#filter0_f_809_50100)">
<path d="M377.611 554.602C349.115 565.958 318.407 571.311 287.56 570.298C256.713 569.284 226.446 561.929 198.802 548.729C171.158 535.528 146.78 516.79 127.316 493.779C107.851 470.768 93.7522 444.02 85.971 415.341C78.1899 386.661 76.9078 356.719 82.211 327.535C87.5143 298.351 99.2794 270.604 116.712 246.169C134.145 221.734 156.84 201.179 183.264 185.891C209.688 170.604 239.227 160.94 269.885 157.553C302.36 154.336 335.18 158.166 365.92 168.76C396.659 179.354 424.532 196.441 447.479 218.759C470.427 241.077 487.862 268.055 498.496 297.7C509.131 327.345 512.693 358.899 508.919 390.031C519.446 379.502 530.274 367.512 542.417 357.708C555.029 348.286 568.176 339.543 581.797 331.519C585.703 329.415 589.943 327.942 594.348 327.158C597.533 326.177 600.901 325.869 604.223 326.254C607.544 326.639 610.741 327.708 613.593 329.388C616.445 331.068 618.887 333.32 620.75 335.989C622.613 338.658 623.853 341.682 624.387 344.853C626.309 353.007 626.574 361.439 625.166 369.687C622.422 382.22 617.556 394.309 613.687 406.656C611.588 411.633 610.072 416.819 609.165 422.118C606.771 447.959 610.242 473.995 619.338 498.434C625.81 516.465 639.419 531.328 657.216 539.806C682.953 552.595 708.818 565.314 735.308 576.553C765.91 587.277 797.627 594.795 829.906 598.974C868.183 605.988 906.879 610.678 945.766 613.017C954.402 613.186 962.893 615.192 970.628 618.888C978.363 622.585 985.15 627.881 990.499 634.395C991.303 635.732 994.364 635.494 996.413 635.816C998.462 636.139 997.172 635.396 997.551 635.186C1008.76 633.817 1019.67 630.776 1029.9 626.174C1034.66 624.761 1039.71 624.494 1044.61 625.397C1049.5 626.301 1054.09 628.346 1057.97 631.353C1077.62 642.983 1097.33 654.735 1117.62 665.197C1124.68 669.284 1132.98 670.939 1141.15 669.889C1149.31 668.84 1156.86 665.148 1162.54 659.424C1169.52 653.192 1178.07 648.822 1187.36 646.748C1196.64 644.674 1206.33 644.969 1215.46 647.603C1232.87 652.122 1248.96 660.448 1262.47 671.928C1268.11 677.294 1272.56 683.706 1275.53 690.772C1278.51 697.839 1279.96 705.413 1279.78 713.031C1281.38 757.597 1272.64 801.936 1254.2 842.846C1235.99 884.473 1212.54 923.793 1184.35 959.925C1160.45 990.82 1135.8 1021.32 1109.41 1050.03C1064.25 1101.68 1009.41 1144.74 947.724 1177.01C936.828 1182.35 925.419 1186.66 913.657 1189.89C907.419 1191.71 900.847 1192.24 894.377 1191.44C887.908 1190.64 881.687 1188.53 876.13 1185.25C857.545 1175.66 842.422 1160.88 832.757 1142.87C825.924 1129.55 824.359 1114.3 828.353 1099.97C830.319 1093.05 830.651 1085.8 829.323 1078.75C827.996 1071.69 825.043 1065.01 820.68 1059.19C812.1 1048.16 802.292 1038.06 791.43 1029.07C782.567 1021.35 772.226 1015.1 762.119 1008.39C756.474 1004.59 751.928 999.471 748.909 993.522C745.889 987.573 744.496 980.985 744.86 974.379C744.642 968.111 743.877 961.871 742.572 955.725C742.572 955.725 741.695 954.267 741.257 953.539C721.765 938.561 707.331 918.377 699.779 895.536C688.955 869.14 680.02 843.642 671.225 817.256C652.79 765.184 623.856 717.098 586.074 675.744C574.763 661.256 561.348 648.398 546.238 637.563C539.436 633.006 531.759 629.792 523.654 628.11C515.549 626.427 507.178 626.308 499.028 627.76C476.384 631.882 453.78 636.631 431.692 643.36C425.614 646.241 420.157 650.197 415.609 655.022C406.676 661.753 398.234 669.021 388.788 674.901C383.81 678.671 377.743 680.881 371.41 681.232C365.077 681.583 358.783 680.058 353.379 676.863C347.875 673.402 343.538 668.48 340.897 662.697C338.255 656.913 337.423 650.518 338.501 644.291C341.343 626.78 347.56 609.934 356.836 594.616C361.73 580.892 370.016 568.041 377.611 554.602Z" fill="#EAEAEA" fill-opacity="0.05"/>
</g>
<defs>
<filter id="filter0_f_809_50100" x="39.102" y="116.548" width="1280.77" height="1115.16" filterUnits="userSpaceOnUse" color-interpolation-filters="sRGB">
<feFlood flood-opacity="0" result="BackgroundImageFix"/>
<feBlend mode="normal" in="SourceGraphic" in2="BackgroundImageFix" result="shape"/>
<feGaussianBlur stdDeviation="19.95" result="effect1_foregroundBlur_809_50100"/>
</filter>
</defs>
</svg>
