<svg width="152" height="48" viewBox="0 0 152 48" fill="none" xmlns="http://www.w3.org/2000/svg">
<rect x="0.807707" y="1.50058" width="150.362" height="44.8988" rx="22.4494" fill="#9AFF00"/>
<rect x="0.807707" y="1.50058" width="150.362" height="44.8988" rx="22.4494" stroke="#9AFF00" stroke-width="1.61541"/>
<path d="M37.4196 19.81L33.7201 23.5243L22.2276 11.6957C22.4454 11.6011 22.6803 11.5509 22.9189 11.5491C23.2429 11.5467 23.5616 11.6336 23.8407 11.8006L23.8407 11.8006L23.8418 11.8012L37.4196 19.81Z" fill="#19181A" stroke="#9AFF00" stroke-width="0.403853"/>
<path d="M22.7171 36.337C22.3944 36.298 22.0893 36.1715 21.8335 35.9724L33.7161 24.1003L37.5224 28.0294L23.842 36.0988L23.8414 36.0991C23.5023 36.3007 23.1073 36.3841 22.7171 36.337Z" fill="#19181A" stroke="#9AFF00" stroke-width="0.403853"/>
<path d="M41.7597 25.5299L41.7593 25.5302L37.8794 27.8231L34.0007 23.8141L37.7785 20.0212L41.7595 22.3651L41.7597 22.3652C42.0331 22.5259 42.2604 22.7565 42.4184 23.0342L42.5939 22.9343L42.4184 23.0342C42.5764 23.3119 42.6597 23.6269 42.6597 23.9476C42.6597 24.2682 42.5764 24.5832 42.4184 24.8609C42.2604 25.1386 42.0331 25.3692 41.7597 25.5299Z" fill="#19181A" stroke="#9AFF00" stroke-width="0.403853"/>
<path d="M21.5429 35.6913C21.4258 35.5505 21.3305 35.392 21.2606 35.2213C21.1693 34.9986 21.1232 34.7596 21.1248 34.5185H21.1248V34.5171V13.3877H21.1248L21.1248 13.3866C21.1232 13.0766 21.2003 12.7714 21.3486 12.5004C21.4764 12.2668 21.6534 12.0654 21.8662 11.9099L33.4348 23.8168L21.5429 35.6913Z" fill="#19181A" stroke="#9AFF00" stroke-width="0.403853"/>
<path d="M65.6132 26.8279H59.8313V28.4474H63.8854C63.6445 29.3416 63.121 30.1316 62.3947 30.697C61.6684 31.2624 60.7791 31.5722 59.8624 31.5791C58.9457 31.586 58.0519 31.2897 57.3173 30.7353C56.5827 30.181 56.0476 29.399 55.7936 28.5086C55.5395 27.6181 55.5804 26.6681 55.9101 25.8034C56.2398 24.9387 56.8402 24.2067 57.6197 23.7191C58.3992 23.2314 59.3151 23.0148 60.2277 23.1023C61.1403 23.1898 61.9996 23.5766 62.6745 24.2037L63.808 23.0578C62.8352 22.1326 61.5766 21.5748 60.2444 21.4784C58.9121 21.382 57.5877 21.7529 56.4945 22.5286C55.4013 23.3044 54.6061 24.4375 54.243 25.7368C53.88 27.0362 53.9712 28.4225 54.5013 29.6618C55.0315 30.9011 55.9681 31.9177 57.1534 32.5402C58.3386 33.1627 59.6999 33.353 61.0078 33.0791C62.3156 32.8051 63.4901 32.0837 64.333 31.0363C65.176 29.989 65.6359 28.6798 65.6353 27.3296C65.6353 27.1605 65.627 26.9928 65.6132 26.8279Z" fill="#19181A"/>
<path d="M70.1796 25.6148C69.4406 25.6107 68.717 25.8284 68.1005 26.2404C67.4841 26.6525 67.0025 27.2402 66.7168 27.9293C66.4312 28.6183 66.3543 29.3775 66.496 30.1108C66.6376 30.844 66.9914 31.5182 67.5125 32.048C68.0336 32.5777 68.6986 32.9391 69.4231 33.0864C70.1476 33.2337 70.8991 33.1602 71.5822 32.8753C72.2654 32.5904 72.8495 32.1068 73.2605 31.4859C73.6715 30.865 73.8909 30.1347 73.8909 29.3877C73.8931 28.39 73.5035 27.4322 72.8076 26.7248C72.1117 26.0174 71.1665 25.6181 70.1796 25.6148ZM70.1796 31.6681C69.0586 31.6681 68.149 30.6746 68.149 29.4505C68.149 28.2265 69.0586 27.2343 70.1796 27.2343C71.3006 27.2343 72.2115 28.2265 72.2115 29.4505C72.2115 30.6746 71.302 31.6681 70.1796 31.6681Z" fill="#19181A"/>
<path d="M78.4384 25.6148C77.6994 25.6107 76.9758 25.8284 76.3593 26.2404C75.7429 26.6525 75.2613 27.2402 74.9756 27.9293C74.69 28.6183 74.6131 29.3775 74.7548 30.1108C74.8964 30.844 75.2502 31.5182 75.7713 32.048C76.2924 32.5777 76.9574 32.9391 77.6819 33.0864C78.4064 33.2337 79.1578 33.1602 79.841 32.8753C80.5242 32.5904 81.1083 32.1068 81.5193 31.4859C81.9303 30.865 82.1497 30.1347 82.1497 29.3877C82.1519 28.39 81.7623 27.4322 81.0664 26.7248C80.3705 26.0174 79.4252 25.6181 78.4384 25.6148ZM78.4384 31.6681C77.316 31.6681 76.4064 30.6746 76.4064 29.4505C76.4064 28.2265 77.316 27.2343 78.4384 27.2343C79.5607 27.2343 80.4689 28.2265 80.4689 29.4505C80.4689 30.6746 79.5621 31.6681 78.4384 31.6681Z" fill="#19181A"/>
<path d="M92.2925 21.4634H90.6904V33.3171H92.2925V21.4634Z" fill="#19181A"/>
<path d="M98.8773 30.3601C98.7143 30.698 98.4689 30.9884 98.164 31.2037C97.8592 31.4191 97.5052 31.5523 97.1352 31.5909C96.7653 31.6295 96.3918 31.5722 96.0499 31.4243C95.708 31.2764 95.409 31.0429 95.1812 30.7458L100.627 28.5911L100.543 28.3116C100.511 28.2068 100.477 28.102 100.438 28.0028C100.121 27.1823 99.5333 26.4975 98.7748 26.0639C98.0163 25.6303 97.1331 25.4743 96.2741 25.6223C95.4151 25.7703 94.6329 26.2132 94.0593 26.8764C93.4857 27.5395 93.1559 28.3823 93.1254 29.2627C93.0949 30.143 93.3656 31.0071 93.8919 31.7092C94.4182 32.4112 95.1679 32.9084 96.0146 33.1167C96.8612 33.3251 97.7531 33.2319 98.5397 32.853C99.3263 32.474 99.9596 31.8325 100.333 31.0364L100.471 30.7332L99.0086 30.0862L98.8773 30.3601ZM98.3742 27.7471L94.7361 29.1877C94.7737 28.7795 94.9229 28.3898 95.167 28.0624C95.4111 27.7349 95.7405 27.4825 96.1184 27.3334C96.496 27.1847 96.9072 27.1451 97.3058 27.2192C97.7045 27.2932 98.0749 27.4779 98.3756 27.7527L98.3742 27.7471Z" fill="#19181A"/>
<path d="M88.2535 25.6147V26.2799C87.7084 25.8511 87.0381 25.6171 86.3474 25.6147C84.4896 25.6147 82.9844 27.3055 82.9844 29.3876C82.9844 31.4697 84.4896 33.1605 86.3474 33.1605C87.0381 33.1581 87.7084 32.9241 88.2535 32.4953V33.31C88.2535 33.7753 87.9218 35.072 86.4096 35.072C84.8974 35.072 84.4744 33.7054 84.4744 33.7054L83.0231 34.3901C83.0231 34.3901 83.576 36.5448 86.5547 36.5448C88.1733 36.5448 89.0068 35.596 89.4312 34.7283C89.7153 34.1362 89.8609 33.486 89.8569 32.8279V25.6147H88.2535ZM86.3474 31.6681C85.3301 31.6681 84.5062 30.6746 84.5062 29.4505C84.5062 28.2264 85.3356 27.2343 86.3474 27.2343C87.3592 27.2343 88.1872 28.2264 88.1872 29.4505C88.1872 30.6746 87.3633 31.6681 86.3474 31.6681Z" fill="#19181A"/>
<path d="M107.779 21.4634H106.177V33.3171H107.779V21.4634Z" fill="#19181A"/>
<path d="M110.021 21.4634V23.0829C111.142 23.0829 112.051 24.075 112.051 25.2991C112.051 26.5232 111.142 27.5153 110.021 27.5153V29.0161C111.011 29.0161 111.961 28.6182 112.662 27.91C113.362 27.2018 113.756 26.2413 113.756 25.2397C113.756 24.2382 113.362 23.2777 112.662 22.5694C111.961 21.8612 111.011 21.4634 110.021 21.4634Z" fill="#19181A"/>
<path d="M110.021 21.4634H107.331V23.0829H110.021V21.4634Z" fill="#19181A"/>
<path d="M110.021 27.5166H107.331V29.016H110.021V27.5166Z" fill="#19181A"/>
<path d="M116.167 21.4634H114.565V33.3171H116.167V21.4634Z" fill="#19181A"/>
<path d="M121.402 32.2816L121.599 32.0678V33.2024H122.948V28.3117C122.955 27.9115 122.901 27.5127 122.786 27.1296C122.694 26.8263 122.522 26.5539 122.288 26.3414C122.033 26.1232 121.731 25.9664 121.407 25.8831C120.972 25.7739 120.525 25.7227 120.077 25.7308C119.792 25.7302 119.509 25.7541 119.228 25.8021C118.971 25.8453 118.717 25.907 118.468 25.9865C118.284 26.0441 118.105 26.1136 117.93 26.1947L118.016 27.4775C118.114 27.4272 118.226 27.3741 118.349 27.3182C118.569 27.2211 118.796 27.1399 119.028 27.0751C119.315 26.9972 119.612 26.9596 119.91 26.9633C120.127 26.9586 120.344 26.9863 120.554 27.0457C120.723 27.0936 120.876 27.1862 120.997 27.314C121.112 27.442 121.194 27.5965 121.235 27.764C121.283 27.9576 121.306 28.1568 121.303 28.3564V28.8846H120.532C120.008 28.8801 119.486 28.9269 118.971 29.0244C118.581 29.0944 118.207 29.2335 117.865 29.4352C117.592 29.6001 117.369 29.8361 117.217 30.1185C117.066 30.4216 116.991 30.7574 116.999 31.0966C116.992 31.4115 117.051 31.7243 117.171 32.0147C117.28 32.2662 117.444 32.489 117.651 32.6659C117.869 32.8475 118.121 32.9833 118.392 33.0655C118.701 33.1604 119.023 33.2075 119.347 33.2052C119.739 33.2102 120.128 33.1277 120.485 32.9635C120.831 32.7977 121.142 32.5662 121.402 32.2816ZM120.563 31.8456C120.323 31.9933 120.047 32.0707 119.766 32.0692C119.467 32.0847 119.173 31.9848 118.945 31.7897C118.842 31.6932 118.762 31.5754 118.709 31.4444C118.656 31.3134 118.632 31.1724 118.638 31.031C118.635 30.8586 118.671 30.6879 118.744 30.5321C118.822 30.3785 118.938 30.2483 119.082 30.1548C119.256 30.0448 119.45 29.9689 119.652 29.9312C119.919 29.8799 120.191 29.856 120.462 29.86H121.306V31.1819L121.278 31.214C121.072 31.459 120.831 31.6719 120.563 31.8456Z" fill="#19181A"/>
<path d="M129.307 25.7422L128.137 28.4796L127.418 30.162L126.93 29.0218L125.527 25.7422H123.781L126.058 31.0619L126.565 32.2483L125.244 35.5111H126.989L128.138 32.5585L129.01 30.5197L131.053 25.7422H129.307Z" fill="#19181A"/>
<path d="M63.7488 17.0492C63.7494 17.0844 63.7461 17.1196 63.7391 17.154C63.7346 17.1813 63.7247 17.2074 63.7101 17.2309C63.6985 17.2503 63.6823 17.2666 63.6631 17.2784C63.6453 17.2883 63.6254 17.2936 63.605 17.2938H60.8862C60.8257 17.2922 60.7674 17.2706 60.7203 17.2323C60.689 17.2049 60.6648 17.1702 60.6499 17.1313C60.635 17.0923 60.6297 17.0502 60.6346 17.0087V11.7113C60.6298 11.6698 60.6351 11.6278 60.6501 11.5888C60.665 11.5499 60.6891 11.5152 60.7203 11.4878C60.7679 11.4503 60.8259 11.4288 60.8862 11.4263H63.565C63.5853 11.4264 63.6052 11.4317 63.623 11.4416C63.6418 11.4536 63.6574 11.4698 63.6686 11.4891C63.6811 11.5143 63.6899 11.5411 63.6949 11.5688C63.7013 11.6057 63.7046 11.6431 63.7046 11.6806C63.7045 11.7153 63.7013 11.7499 63.6949 11.784C63.6904 11.8105 63.6815 11.836 63.6686 11.8594C63.6574 11.878 63.6417 11.8934 63.623 11.9042C63.6056 11.9152 63.5855 11.921 63.565 11.9209H61.1778V13.9848H63.2374C63.2591 13.984 63.2807 13.9893 63.2996 14.0002C63.318 14.0113 63.3336 14.0266 63.3452 14.0449C63.3581 14.0694 63.3669 14.0958 63.3714 14.1232C63.3786 14.1595 63.3818 14.1965 63.3811 14.2335C63.3819 14.2678 63.3786 14.3021 63.3714 14.3356C63.367 14.3607 63.3581 14.3849 63.3452 14.4068C63.3335 14.4239 63.3178 14.4378 63.2996 14.4473C63.28 14.4561 63.2588 14.4604 63.2374 14.4599H61.1778V16.8005H63.6009C63.6214 16.8004 63.6415 16.8063 63.6589 16.8173C63.6781 16.8279 63.6942 16.8433 63.7059 16.862C63.721 16.8852 63.7309 16.9114 63.735 16.9388C63.7433 16.975 63.748 17.012 63.7488 17.0492Z" fill="#19181A"/>
<path d="M68.6419 11.679C68.6423 11.7137 68.6396 11.7483 68.6336 11.7824C68.6288 11.809 68.6194 11.8345 68.606 11.8579C68.5957 11.8767 68.5804 11.8922 68.5618 11.9026C68.5443 11.9136 68.5242 11.9194 68.5037 11.9194H66.7731V17.2028C66.7728 17.2204 66.768 17.2377 66.7593 17.2531C66.7482 17.2697 66.7323 17.2824 66.7137 17.2894C66.6865 17.3001 66.6582 17.3076 66.6294 17.3118C66.5864 17.3183 66.5429 17.3216 66.4994 17.3215C66.4559 17.3216 66.4125 17.3184 66.3695 17.3118C66.3402 17.3075 66.3115 17.3 66.2838 17.2894C66.266 17.2835 66.2506 17.2718 66.2401 17.2561C66.2296 17.2404 66.2245 17.2217 66.2258 17.2028V11.9194H64.4952C64.4737 11.9202 64.4525 11.9143 64.4344 11.9026C64.4169 11.8911 64.4023 11.8758 64.3915 11.8579C64.378 11.8347 64.3691 11.8091 64.3652 11.7824C64.3581 11.7484 64.3549 11.7137 64.3556 11.679C64.3549 11.6415 64.3581 11.604 64.3652 11.5672C64.3696 11.5394 64.3784 11.5125 64.3915 11.4876C64.4019 11.4686 64.4166 11.4523 64.4344 11.4401C64.4535 11.4318 64.4745 11.4289 64.4952 11.4317H68.5037C68.5249 11.4315 68.5456 11.4372 68.5637 11.4484C68.5818 11.4595 68.5964 11.4755 68.606 11.4946C68.6189 11.5196 68.6282 11.5465 68.6336 11.5742C68.6392 11.6089 68.642 11.6439 68.6419 11.679Z" fill="#19181A"/>
<path d="M72.1931 17.2027C72.1927 17.2203 72.188 17.2376 72.1792 17.253C72.1684 17.2692 72.153 17.2819 72.135 17.2893C72.1077 17.2996 72.0795 17.3071 72.0507 17.3117C72.0072 17.3185 71.9633 17.3218 71.9194 17.3214C71.8759 17.3216 71.8324 17.3183 71.7894 17.3117C71.7601 17.3075 71.7314 17.2999 71.7037 17.2893C71.6859 17.2834 71.6705 17.2717 71.66 17.256C71.6495 17.2404 71.6445 17.2216 71.6457 17.2027V11.5154C71.6452 11.4974 71.6505 11.4798 71.6609 11.4651C71.674 11.4487 71.6911 11.4362 71.7107 11.4288C71.738 11.4187 71.7662 11.4112 71.795 11.4064C71.8362 11.4004 71.8778 11.3976 71.9194 11.3981C71.9633 11.3973 72.0072 11.4001 72.0507 11.4064C72.0795 11.411 72.1077 11.4185 72.135 11.4288C72.153 11.4362 72.1684 11.4489 72.1792 11.4651C72.188 11.4805 72.1927 11.4978 72.1931 11.5154V17.2027Z" fill="#19181A"/>
<path d="M77.4054 11.6791C77.4058 11.7138 77.4031 11.7484 77.3971 11.7825C77.3929 11.8093 77.3835 11.8349 77.3695 11.858C77.3592 11.8768 77.3439 11.8923 77.3253 11.9027C77.3079 11.9137 77.2877 11.9195 77.2672 11.9195H75.5352V17.2029C75.5356 17.2216 75.5302 17.24 75.5198 17.2555C75.5094 17.271 75.4945 17.2829 75.4772 17.2895C75.4495 17.3002 75.4208 17.3077 75.3915 17.3119C75.3054 17.3249 75.2178 17.3249 75.1316 17.3119C75.1023 17.3077 75.0736 17.3002 75.0459 17.2895C75.0286 17.2829 75.0137 17.271 75.0033 17.2555C74.9929 17.24 74.9875 17.2216 74.9879 17.2029V11.9195H73.2559C73.2344 11.9201 73.2133 11.9143 73.1951 11.9027C73.1777 11.8913 73.163 11.876 73.1522 11.858C73.1393 11.8345 73.1305 11.809 73.126 11.7825C73.1189 11.7486 73.1156 11.7139 73.1163 11.6791C73.1156 11.6416 73.1188 11.6042 73.126 11.5674C73.131 11.5397 73.1398 11.5129 73.1522 11.4877C73.1627 11.4687 73.1774 11.4524 73.1951 11.4402C73.2137 11.4297 73.2347 11.4244 73.2559 11.4248H77.2644C77.2856 11.4246 77.3064 11.4304 77.3245 11.4415C77.3425 11.4526 77.3572 11.4686 77.3667 11.4877C77.3803 11.5125 77.3896 11.5394 77.3944 11.5674C77.4012 11.6042 77.4049 11.6416 77.4054 11.6791Z" fill="#19181A"/>
<path d="M85.0776 14.2906C85.0822 14.7203 85.0287 15.1486 84.9187 15.5636C84.8257 15.9162 84.663 16.2461 84.4404 16.5334C84.2264 16.8029 83.9508 17.0158 83.6373 17.1538C83.2795 17.3049 82.8944 17.3786 82.5066 17.3704C82.128 17.3795 81.7515 17.3096 81.4008 17.165C81.102 17.0355 80.8398 16.8328 80.6378 16.5753C80.4282 16.2972 80.2785 15.9778 80.1983 15.6377C80.1006 15.2297 80.0542 14.8109 80.0601 14.3912C80.0548 13.9667 80.1078 13.5434 80.2176 13.1336C80.3101 12.7838 80.4729 12.457 80.6959 12.1736C80.9118 11.9117 81.1861 11.7053 81.4962 11.5714C81.8541 11.4188 82.2399 11.3445 82.6283 11.3534C83.0032 11.344 83.376 11.4134 83.723 11.5574C84.022 11.6859 84.2851 11.887 84.4888 12.1429C84.7005 12.4162 84.853 12.7313 84.9366 13.0679C85.0369 13.4674 85.0843 13.8786 85.0776 14.2906ZM84.4943 14.3409C84.4966 14.0123 84.4642 13.6844 84.3976 13.3628C84.3425 13.0802 84.2346 12.8108 84.0796 12.5691C83.9317 12.3435 83.7283 12.1605 83.4894 12.0381C83.2054 11.901 82.8931 11.8349 82.5785 11.8453C82.264 11.835 81.9519 11.9042 81.6704 12.0465C81.4297 12.1757 81.2235 12.3616 81.0691 12.5886C80.9081 12.8308 80.795 13.1023 80.736 13.3879C80.668 13.7023 80.6341 14.0233 80.6351 14.3451C80.6334 14.6795 80.6645 15.0132 80.7277 15.3414C80.7803 15.6256 80.8863 15.8969 81.0401 16.1407C81.186 16.3679 81.3886 16.552 81.6275 16.6745C81.9142 16.8123 82.2295 16.8784 82.5467 16.8673C82.866 16.8782 83.1827 16.8071 83.4673 16.6605C83.7101 16.5269 83.9165 16.3349 84.0686 16.1016C84.2263 15.8574 84.337 15.5852 84.3948 15.2995C84.4622 14.9846 84.4956 14.6632 84.4943 14.3409Z" fill="#19181A"/>
<path d="M90.5881 17.0213C90.5902 17.0691 90.5817 17.1169 90.5632 17.161C90.5488 17.1947 90.527 17.2248 90.4997 17.249C90.4761 17.272 90.447 17.2883 90.4153 17.2965C90.3872 17.3055 90.3578 17.3102 90.3283 17.3105H90.2149C90.1597 17.3113 90.1048 17.3038 90.0518 17.2881C90.0013 17.2704 89.9544 17.2434 89.9136 17.2085C89.8612 17.164 89.8147 17.1128 89.7754 17.0562C89.7195 16.9775 89.6678 16.8959 89.6205 16.8117L87.5748 13.1464C87.4739 12.9689 87.3716 12.7845 87.268 12.5958C87.1643 12.4072 87.0661 12.2227 86.9735 12.0453C86.9735 12.2661 86.9735 12.491 86.9735 12.723V17.1945C86.9748 17.2134 86.9697 17.2322 86.9592 17.2479C86.9487 17.2636 86.9333 17.2753 86.9155 17.2812C86.8887 17.2917 86.8609 17.2992 86.8325 17.3035C86.7868 17.3106 86.7406 17.3139 86.6943 17.3133C86.6508 17.3134 86.6074 17.3101 86.5644 17.3035C86.5355 17.2993 86.5072 17.2918 86.4801 17.2812C86.4615 17.2741 86.4456 17.2614 86.4345 17.2448C86.4257 17.2295 86.421 17.2122 86.4206 17.1945V11.7113C86.4159 11.6698 86.4212 11.6278 86.4361 11.5888C86.4511 11.5498 86.4752 11.5152 86.5063 11.4877C86.5539 11.4502 86.6119 11.4287 86.6722 11.4263H86.8961C86.9565 11.4247 87.0169 11.4308 87.0758 11.4444C87.1228 11.456 87.1669 11.4769 87.2058 11.5059C87.25 11.5401 87.2887 11.5812 87.3205 11.6275C87.3654 11.6925 87.4065 11.7601 87.4435 11.8301L89.0096 14.6374C89.1091 14.8134 89.2017 14.9811 89.286 15.1432L89.5445 15.6197C89.6275 15.7748 89.7104 15.9285 89.7933 16.0794C89.8763 16.2304 89.9564 16.3841 90.038 16.5378C90.038 16.2834 90.038 16.0194 90.038 15.7441V11.5338C90.0376 11.5161 90.0424 11.4986 90.0518 11.4835C90.0622 11.4665 90.0777 11.4533 90.096 11.4458C90.1223 11.4336 90.1503 11.4255 90.179 11.4221C90.225 11.4192 90.2712 11.4192 90.3172 11.4221C90.3591 11.4196 90.4011 11.4196 90.443 11.4221C90.4722 11.4254 90.5006 11.4334 90.5273 11.4458C90.5461 11.4537 90.5624 11.4668 90.5743 11.4835C90.5851 11.4981 90.5909 11.5157 90.5909 11.5338L90.5881 17.0213Z" fill="#19181A"/>
<path d="M54.0283 14.3552C54.0283 15.1168 54.3276 15.8472 54.8603 16.3857C55.393 16.9242 56.1155 17.2267 56.8688 17.2267C57.6222 17.2267 58.3447 16.9242 58.8774 16.3857C59.4101 15.8472 59.7094 15.1168 59.7094 14.3552C59.7094 14.3146 59.7094 14.2741 59.7094 14.2336H57.0029V14.7925H59.1219L59.0763 14.963C58.9466 15.4444 58.6665 15.8705 58.2776 16.1777C57.8888 16.4849 57.4121 16.6567 56.9187 16.6675C56.4253 16.6784 55.9417 16.5276 55.54 16.2378C55.1384 15.9479 54.8402 15.5346 54.6899 15.0594C54.5397 14.5841 54.5456 14.0725 54.7066 13.6009C54.8676 13.1294 55.1751 12.723 55.5833 12.4426C55.9915 12.1623 56.4784 12.0228 56.9714 12.0452C57.4644 12.0675 57.9371 12.2504 58.3188 12.5666L58.7114 12.1711C58.2987 11.8148 57.7937 11.5855 57.2561 11.5104C56.7185 11.4353 56.1709 11.5175 55.6781 11.7474C55.1853 11.9772 54.768 12.345 54.4756 12.8072C54.1832 13.2693 54.028 13.8066 54.0283 14.3552Z" fill="#19181A"/>
</svg>
