<svg width="213" height="65" viewBox="0 0 213 65" fill="none" xmlns="http://www.w3.org/2000/svg">
<rect x="2.09529" y="1.12654" width="209.715" height="62.622" rx="31.311" fill="#9AFF00"/>
<rect x="2.09529" y="1.12654" width="209.715" height="62.622" rx="31.311" stroke="#19181A" stroke-width="2.25308"/>
<path d="M53.1592 26.6637L47.9994 31.844L31.9704 15.3463C32.2741 15.2143 32.6018 15.1444 32.9346 15.1419C33.3865 15.1385 33.831 15.2596 34.2203 15.4925L34.2203 15.4925L34.2218 15.4934L53.1592 26.6637Z" fill="#19181A" stroke="#9AFF00" stroke-width="0.563269"/>
<path d="M32.6522 49.7139C32.2022 49.6596 31.7767 49.4832 31.4198 49.2054L47.993 32.647L53.3018 38.127L34.2212 49.3817L34.2204 49.3822C33.7473 49.6633 33.1965 49.7797 32.6522 49.7139Z" fill="#19181A" stroke="#9AFF00" stroke-width="0.563269"/>
<path d="M59.2124 34.6417L59.2118 34.642L53.8005 37.8401L48.3907 32.2485L53.6598 26.9584L59.2122 30.2275L59.2124 30.2276C59.5938 30.4518 59.9107 30.7735 60.1312 31.1608C60.3516 31.5481 60.4677 31.9874 60.4677 32.4347C60.4677 32.8819 60.3516 33.3212 60.1312 33.7085C59.9107 34.0958 59.5938 34.4175 59.2124 34.6417Z" fill="#19181A" stroke="#9AFF00" stroke-width="0.563269"/>
<path d="M31.0152 48.8141C30.8519 48.6177 30.7189 48.3967 30.6214 48.1586C30.4942 47.848 30.4298 47.5147 30.4321 47.1784V47.1764V17.7065H30.4321L30.4321 17.705C30.4298 17.2726 30.5373 16.8469 30.7442 16.4689C30.9224 16.1431 31.1693 15.8622 31.4661 15.6454L47.6012 32.2524L31.0152 48.8141Z" fill="#19181A" stroke="#9AFF00" stroke-width="0.563269"/>
<path d="M92.4817 36.4514H84.4174V38.7102H90.0718C89.7359 39.9574 89.0057 41.0592 87.9927 41.8478C86.9797 42.6364 85.7393 43.0684 84.4608 43.0781C83.1823 43.0877 81.9357 42.6745 80.9111 41.9013C79.8866 41.1281 79.1402 40.0374 78.7859 38.7955C78.4315 37.5536 78.4886 36.2286 78.9485 35.0225C79.4083 33.8165 80.2457 32.7956 81.3329 32.1154C82.4201 31.4352 83.6975 31.1331 84.9704 31.2551C86.2432 31.3772 87.4417 31.9166 88.383 32.7913L89.9639 31.1932C88.6071 29.9027 86.8517 29.1247 84.9935 28.9902C83.1354 28.8557 81.2883 29.3731 79.7635 30.4551C78.2388 31.537 77.1297 33.1174 76.6233 34.9297C76.1169 36.742 76.2441 38.6754 76.9835 40.4039C77.723 42.1324 79.0293 43.5504 80.6824 44.4186C82.3355 45.2868 84.2342 45.5523 86.0583 45.1702C87.8824 44.7881 89.5204 43.7818 90.6962 42.321C91.8719 40.8602 92.5134 39.0343 92.5125 37.1511C92.5125 36.9153 92.501 36.6814 92.4817 36.4514Z" fill="#19181A"/>
<path d="M98.8514 34.7598C97.8207 34.754 96.8114 35.0577 95.9516 35.6323C95.0918 36.207 94.4202 37.0268 94.0218 37.9878C93.6234 38.9488 93.5161 40.0078 93.7137 41.0304C93.9113 42.0531 94.4047 42.9935 95.1315 43.7323C95.8583 44.4712 96.7858 44.9753 97.7963 45.1807C98.8068 45.3861 99.8549 45.2836 100.808 44.8862C101.761 44.4888 102.575 43.8144 103.148 42.9484C103.722 42.0824 104.028 41.0639 104.028 40.0219C104.031 38.6304 103.487 37.2946 102.517 36.3079C101.546 35.3212 100.228 34.7644 98.8514 34.7598ZM98.8514 43.2026C97.2879 43.2026 96.0193 41.8169 96.0193 40.1096C96.0193 38.4023 97.2879 37.0186 98.8514 37.0186C100.415 37.0186 101.685 38.4023 101.685 40.1096C101.685 41.8169 100.417 43.2026 98.8514 43.2026Z" fill="#19181A"/>
<path d="M110.369 34.7598C109.338 34.754 108.329 35.0577 107.469 35.6323C106.609 36.207 105.938 37.0268 105.539 37.9878C105.141 38.9488 105.034 40.0078 105.231 41.0304C105.429 42.0531 105.922 42.9935 106.649 43.7323C107.376 44.4712 108.303 44.9753 109.314 45.1807C110.324 45.3861 111.372 45.2836 112.325 44.8862C113.278 44.4888 114.093 43.8144 114.666 42.9484C115.239 42.0824 115.545 41.0639 115.545 40.0219C115.548 38.6304 115.005 37.2946 114.034 36.3079C113.064 35.3212 111.745 34.7644 110.369 34.7598ZM110.369 43.2026C108.804 43.2026 107.535 41.8169 107.535 40.1096C107.535 38.4023 108.804 37.0186 110.369 37.0186C111.934 37.0186 113.201 38.4023 113.201 40.1096C113.201 41.8169 111.936 43.2026 110.369 43.2026Z" fill="#19181A"/>
<path d="M129.691 28.9694H127.457V45.5023H129.691V28.9694Z" fill="#19181A"/>
<path d="M138.877 41.3783C138.65 41.8496 138.308 42.2546 137.882 42.5549C137.457 42.8553 136.963 43.0412 136.448 43.095C135.932 43.1488 135.411 43.0689 134.934 42.8626C134.457 42.6564 134.04 42.3306 133.722 41.9162L141.318 38.911L141.2 38.5212C141.156 38.375 141.108 38.2288 141.054 38.0905C140.611 36.9462 139.792 35.9911 138.734 35.3863C137.676 34.7814 136.445 34.5639 135.246 34.7703C134.048 34.9767 132.957 35.5945 132.157 36.5194C131.357 37.4443 130.897 38.6198 130.855 39.8477C130.812 41.0756 131.19 42.2807 131.924 43.2599C132.658 44.2391 133.704 44.9325 134.884 45.2231C136.065 45.5137 137.309 45.3838 138.406 44.8552C139.504 44.3267 140.387 43.4319 140.907 42.3216L141.1 41.8987L139.06 40.9963L138.877 41.3783ZM138.176 37.7338L133.101 39.7432C133.154 39.1737 133.362 38.6303 133.702 38.1736C134.043 37.7168 134.502 37.3648 135.029 37.1569C135.556 36.9495 136.129 36.8943 136.685 36.9975C137.241 37.1008 137.758 37.3584 138.177 37.7416L138.176 37.7338Z" fill="#19181A"/>
<path d="M124.058 34.7598V35.6874C123.298 35.0894 122.363 34.7631 121.4 34.7598C118.808 34.7598 116.709 37.118 116.709 40.0219C116.709 42.9258 118.808 45.284 121.4 45.284C122.363 45.2807 123.298 44.9544 124.058 44.3563V45.4926C124.058 46.1416 123.595 47.9502 121.486 47.9502C119.377 47.9502 118.787 46.0441 118.787 46.0441L116.763 46.9991C116.763 46.9991 117.534 50.0044 121.689 50.0044C123.946 50.0044 125.109 48.681 125.701 47.4707C126.097 46.6449 126.3 45.738 126.294 44.8202V34.7598H124.058ZM121.4 43.2026C119.981 43.2026 118.832 41.8169 118.832 40.1096C118.832 38.4023 119.988 37.0186 121.4 37.0186C122.811 37.0186 123.966 38.4023 123.966 40.1096C123.966 41.8169 122.816 43.2026 121.4 43.2026Z" fill="#19181A"/>
<path d="M151.291 28.9694H149.057V45.5023H151.291V28.9694Z" fill="#19181A"/>
<path d="M154.418 28.9694V31.2282C155.981 31.2282 157.25 32.612 157.25 34.3192C157.25 36.0265 155.981 37.4103 154.418 37.4103V39.5034C155.8 39.5034 157.125 38.9485 158.102 37.9608C159.079 36.973 159.628 35.6333 159.628 34.2364C159.628 32.8395 159.079 31.4998 158.102 30.5121C157.125 29.5243 155.8 28.9694 154.418 28.9694Z" fill="#19181A"/>
<path d="M154.42 28.9694H150.668V31.2283H154.42V28.9694Z" fill="#19181A"/>
<path d="M154.42 37.4122H150.668V39.5035H154.42V37.4122Z" fill="#19181A"/>
<path d="M162.99 28.9694H160.756V45.5023H162.99V28.9694Z" fill="#19181A"/>
<path d="M170.293 44.0581L170.567 43.76V45.3425H172.449V38.5212C172.459 37.9631 172.383 37.4068 172.223 36.8724C172.094 36.4494 171.854 36.0695 171.529 35.7732C171.172 35.4687 170.752 35.2502 170.299 35.1339C169.693 34.9817 169.069 34.9103 168.444 34.9215C168.048 34.9207 167.652 34.954 167.261 35.0209C166.902 35.0813 166.547 35.1672 166.2 35.2782C165.945 35.3585 165.694 35.4555 165.45 35.5686L165.57 37.3577C165.707 37.2875 165.863 37.2135 166.035 37.1355C166.342 37.0001 166.658 36.8868 166.981 36.7964C167.382 36.6878 167.796 36.6353 168.211 36.6405C168.515 36.6339 168.817 36.6727 169.11 36.7555C169.345 36.8223 169.559 36.9515 169.728 37.1297C169.888 37.3081 170.002 37.5237 170.06 37.7572C170.127 38.0273 170.159 38.3051 170.155 38.5836V39.3203H169.079C168.349 39.314 167.62 39.3792 166.902 39.5152C166.359 39.6128 165.837 39.8068 165.36 40.0882C164.979 40.3181 164.667 40.6473 164.456 41.0412C164.245 41.4639 164.141 41.9323 164.151 42.4054C164.142 42.8446 164.224 43.2809 164.392 43.6859C164.543 44.0366 164.772 44.3474 165.061 44.5941C165.366 44.8474 165.717 45.0369 166.094 45.1515C166.526 45.2839 166.975 45.3496 167.427 45.3464C167.974 45.3533 168.515 45.2382 169.013 45.0092C169.496 44.7779 169.931 44.4551 170.293 44.0581ZM169.123 43.4501C168.788 43.656 168.403 43.7639 168.011 43.7619C167.594 43.7836 167.185 43.6442 166.866 43.3721C166.723 43.2375 166.611 43.0732 166.537 42.8905C166.463 42.7078 166.429 42.511 166.438 42.3138C166.433 42.0735 166.484 41.8353 166.586 41.6181C166.694 41.4038 166.856 41.2223 167.056 41.0919C167.3 40.9384 167.57 40.8326 167.853 40.78C168.225 40.7084 168.603 40.6751 168.982 40.6806H170.158V42.5243L170.12 42.5692C169.832 42.9109 169.496 43.2077 169.123 43.4501Z" fill="#19181A"/>
<path d="M181.319 34.9371L179.686 38.7551L178.684 41.1016L178.003 39.5113L176.046 34.9371H173.611L176.787 42.3567L177.494 44.0114L175.651 48.5621H178.086L179.688 44.444L180.904 41.6005L183.754 34.9371H181.319Z" fill="#19181A"/>
<path d="M89.8811 22.8127C89.882 22.8618 89.8774 22.9108 89.8676 22.9589C89.8613 22.997 89.8475 23.0334 89.8271 23.0661C89.811 23.0933 89.7884 23.116 89.7616 23.1324C89.7368 23.1462 89.709 23.1536 89.6806 23.1538H85.8885C85.8042 23.1516 85.7229 23.1215 85.6571 23.0681C85.6135 23.0299 85.5798 22.9815 85.559 22.9272C85.5382 22.8728 85.5308 22.8141 85.5376 22.7562V15.3678C85.531 15.3099 85.5384 15.2513 85.5592 15.1969C85.5801 15.1426 85.6137 15.0942 85.6571 15.056C85.7235 15.0037 85.8044 14.9737 85.8885 14.9702H89.6247C89.6531 14.9704 89.6809 14.9778 89.7057 14.9917C89.7318 15.0083 89.7537 15.031 89.7693 15.0579C89.7867 15.093 89.799 15.1304 89.8059 15.169C89.8149 15.2205 89.8195 15.2727 89.8194 15.3249C89.8194 15.3733 89.8149 15.4216 89.8059 15.4691C89.7997 15.5061 89.7873 15.5416 89.7693 15.5744C89.7537 15.6003 89.7318 15.6217 89.7057 15.6367C89.6814 15.6521 89.6533 15.6602 89.6247 15.6601H86.2953V18.5387H89.1678C89.1981 18.5375 89.2282 18.5449 89.2546 18.5602C89.2803 18.5757 89.3021 18.597 89.3182 18.6225C89.3362 18.6567 89.3485 18.6935 89.3548 18.7317C89.3648 18.7823 89.3693 18.834 89.3683 18.8856C89.3694 18.9334 89.3648 18.9812 89.3548 19.0279C89.3487 19.063 89.3362 19.0967 89.3182 19.1273C89.3019 19.1511 89.28 19.1705 89.2546 19.1838C89.2273 19.196 89.1977 19.202 89.1678 19.2014H86.2953V22.4658H89.6748C89.7035 22.4658 89.7315 22.4739 89.7558 22.4892C89.7825 22.5041 89.805 22.5256 89.8214 22.5516C89.8423 22.584 89.8561 22.6205 89.8618 22.6588C89.8735 22.7093 89.88 22.7609 89.8811 22.8127Z" fill="#19181A"/>
<path d="M96.707 15.323C96.7076 15.3713 96.7037 15.4196 96.6954 15.4672C96.6886 15.5042 96.6756 15.5398 96.6569 15.5724C96.6425 15.5986 96.6211 15.6203 96.5952 15.6348C96.5709 15.6501 96.5428 15.6582 96.5142 15.6582H94.1005V23.0271C94.1 23.0518 94.0934 23.0759 94.0812 23.0973C94.0657 23.1204 94.0435 23.1382 94.0176 23.1479C93.9797 23.1628 93.9403 23.1733 93.9 23.1791C93.84 23.1883 93.7794 23.1929 93.7188 23.1928C93.6581 23.1929 93.5975 23.1884 93.5376 23.1791C93.4967 23.1733 93.4566 23.1628 93.418 23.1479C93.3932 23.1398 93.3717 23.1235 93.3571 23.1016C93.3424 23.0797 93.3354 23.0535 93.3371 23.0271V15.6582H90.9234C90.8934 15.6593 90.8638 15.6512 90.8385 15.6348C90.8142 15.6188 90.7938 15.5975 90.7788 15.5724C90.76 15.5401 90.7475 15.5043 90.7421 15.4672C90.7322 15.4198 90.7277 15.3714 90.7286 15.323C90.7277 15.2707 90.7322 15.2184 90.7421 15.167C90.7482 15.1282 90.7606 15.0907 90.7788 15.056C90.7933 15.0295 90.8138 15.0068 90.8385 14.9897C90.8653 14.9782 90.8946 14.9741 90.9234 14.978H96.5142C96.5437 14.9777 96.5727 14.9858 96.5979 15.0012C96.6231 15.0167 96.6436 15.0391 96.6569 15.0657C96.6749 15.1007 96.6879 15.1381 96.6954 15.1768C96.7032 15.2251 96.707 15.274 96.707 15.323Z" fill="#19181A"/>
<path d="M101.658 23.0271C101.658 23.0518 101.651 23.0759 101.639 23.0973C101.624 23.12 101.602 23.1376 101.577 23.1479C101.539 23.1623 101.5 23.1728 101.46 23.1791C101.399 23.1887 101.338 23.1932 101.277 23.1928C101.216 23.1929 101.155 23.1884 101.095 23.1791C101.054 23.1733 101.014 23.1628 100.976 23.1479C100.951 23.1398 100.929 23.1234 100.915 23.1016C100.9 23.0797 100.893 23.0535 100.895 23.0271V15.0949C100.894 15.0698 100.902 15.0452 100.916 15.0248C100.934 15.0019 100.958 14.9844 100.985 14.9741C101.024 14.9599 101.063 14.9495 101.103 14.9429C101.16 14.9345 101.218 14.9305 101.277 14.9312C101.338 14.9302 101.399 14.9341 101.46 14.9429C101.5 14.9493 101.539 14.9597 101.577 14.9741C101.602 14.9844 101.624 15.0021 101.639 15.0248C101.651 15.0461 101.658 15.0703 101.658 15.0949V23.0271Z" fill="#19181A"/>
<path d="M108.93 15.323C108.93 15.3713 108.926 15.4196 108.918 15.4672C108.912 15.5045 108.899 15.5402 108.879 15.5724C108.865 15.5986 108.844 15.6203 108.818 15.6348C108.794 15.6501 108.765 15.6582 108.737 15.6582H106.321V23.0271C106.322 23.0532 106.314 23.0789 106.3 23.1005C106.285 23.1221 106.264 23.1387 106.24 23.1479C106.202 23.1628 106.162 23.1733 106.121 23.1791C106.001 23.1973 105.878 23.1973 105.758 23.1791C105.717 23.1733 105.677 23.1628 105.639 23.1479C105.615 23.1387 105.594 23.1221 105.579 23.1005C105.565 23.0789 105.557 23.0532 105.558 23.0271V15.6582H103.142C103.112 15.6591 103.083 15.6509 103.057 15.6348C103.033 15.6188 103.013 15.5975 102.998 15.5724C102.98 15.5397 102.967 15.5041 102.961 15.4672C102.951 15.4198 102.946 15.3714 102.947 15.323C102.946 15.2706 102.951 15.2184 102.961 15.167C102.968 15.1284 102.98 15.091 102.998 15.056C103.012 15.0295 103.033 15.0068 103.057 14.9897C103.083 14.9751 103.112 14.9677 103.142 14.9682H108.733C108.762 14.9679 108.791 14.976 108.817 14.9915C108.842 15.007 108.862 15.0293 108.876 15.056C108.895 15.0906 108.908 15.1281 108.914 15.167C108.924 15.2185 108.929 15.2706 108.93 15.323Z" fill="#19181A"/>
<path d="M119.63 18.9655C119.636 19.5648 119.562 20.1622 119.408 20.741C119.278 21.2328 119.051 21.6929 118.741 22.0936C118.443 22.4695 118.058 22.7665 117.621 22.9589C117.122 23.1696 116.585 23.2725 116.044 23.261C115.516 23.2738 114.991 23.1762 114.502 22.9745C114.085 22.7939 113.719 22.5112 113.437 22.1521C113.145 21.7641 112.936 21.3187 112.824 20.8443C112.688 20.2753 112.623 19.6912 112.632 19.1059C112.624 18.5137 112.698 17.9234 112.851 17.3518C112.98 16.8639 113.207 16.4081 113.518 16.0129C113.819 15.6476 114.202 15.3597 114.635 15.1729C115.134 14.96 115.672 14.8564 116.214 14.8689C116.737 14.8557 117.256 14.9526 117.74 15.1534C118.157 15.3327 118.524 15.6132 118.808 15.97C119.104 16.3512 119.316 16.7907 119.433 17.2602C119.573 17.8174 119.639 18.3908 119.63 18.9655ZM118.816 19.0357C118.819 18.5774 118.774 18.12 118.681 17.6714C118.604 17.2773 118.454 16.9015 118.238 16.5644C118.031 16.2498 117.748 15.9946 117.415 15.8239C117.019 15.6327 116.583 15.5404 116.144 15.5549C115.705 15.5406 115.27 15.6371 114.878 15.8355C114.542 16.0157 114.254 16.2751 114.039 16.5917C113.814 16.9295 113.657 17.3081 113.574 17.7065C113.479 18.145 113.432 18.5927 113.434 19.0415C113.431 19.5079 113.475 19.9734 113.563 20.4311C113.636 20.8275 113.784 21.2059 113.998 21.5459C114.202 21.8627 114.485 22.1196 114.818 22.2904C115.218 22.4826 115.657 22.5748 116.1 22.5594C116.545 22.5746 116.987 22.4753 117.384 22.2709C117.722 22.0845 118.01 21.8168 118.222 21.4914C118.442 21.1507 118.597 20.7712 118.677 20.3727C118.771 19.9334 118.818 19.4851 118.816 19.0357Z" fill="#19181A"/>
<path d="M127.315 22.7738C127.318 22.8405 127.306 22.9071 127.28 22.9687C127.26 23.0157 127.23 23.0576 127.192 23.0914C127.159 23.1234 127.118 23.1462 127.074 23.1577C127.035 23.1702 126.994 23.1768 126.952 23.1772H126.794C126.717 23.1783 126.641 23.1678 126.567 23.146C126.496 23.1213 126.431 23.0836 126.374 23.0349C126.301 22.9729 126.236 22.9015 126.181 22.8225C126.103 22.7127 126.031 22.5989 125.965 22.4814L123.112 17.3694C122.971 17.1218 122.829 16.8646 122.684 16.6015C122.54 16.3384 122.403 16.0811 122.274 15.8336C122.274 16.1415 122.274 16.4553 122.274 16.7788V23.0154C122.275 23.0418 122.268 23.068 122.254 23.0899C122.239 23.1118 122.217 23.1281 122.193 23.1363C122.155 23.1509 122.116 23.1614 122.077 23.1674C122.013 23.1773 121.949 23.1819 121.884 23.1811C121.823 23.1812 121.763 23.1766 121.703 23.1674C121.663 23.1616 121.623 23.1511 121.585 23.1363C121.559 23.1265 121.537 23.1087 121.522 23.0856C121.509 23.0642 121.503 23.0401 121.502 23.0154V15.3678C121.496 15.3099 121.503 15.2513 121.524 15.1969C121.545 15.1426 121.578 15.0942 121.622 15.056C121.688 15.0037 121.769 14.9737 121.853 14.9702H122.166C122.25 14.9681 122.334 14.9766 122.416 14.9955C122.482 15.0116 122.543 15.0408 122.597 15.0813C122.659 15.129 122.713 15.1863 122.757 15.2509C122.82 15.3415 122.877 15.4359 122.929 15.5334L125.113 19.4489C125.252 19.6944 125.381 19.9283 125.499 20.1544L125.859 20.819C125.975 21.0353 126.091 21.2497 126.206 21.4602C126.322 21.6707 126.434 21.885 126.548 22.0994C126.548 21.7447 126.548 21.3764 126.548 20.9924V15.1203C126.547 15.0955 126.554 15.0711 126.567 15.0501C126.581 15.0264 126.603 15.0079 126.629 14.9975C126.665 14.9804 126.704 14.9692 126.744 14.9644C126.808 14.9604 126.873 14.9604 126.937 14.9644C126.995 14.961 127.054 14.961 127.112 14.9644C127.153 14.969 127.193 14.9802 127.23 14.9975C127.256 15.0085 127.279 15.0267 127.296 15.0501C127.311 15.0703 127.319 15.095 127.319 15.1203L127.315 22.7738Z" fill="#19181A"/>
<path d="M76.3242 19.0552C76.3242 20.1174 76.7416 21.1361 77.4846 21.8872C78.2276 22.6383 79.2353 23.0602 80.286 23.0602C81.3367 23.0602 82.3444 22.6383 83.0874 21.8872C83.8304 21.1361 84.2478 20.1174 84.2478 19.0552C84.2478 18.9986 84.2478 18.9421 84.2478 18.8856H80.473V19.6652H83.4284L83.3648 19.903C83.184 20.5743 82.7932 21.1686 82.2509 21.5971C81.7086 22.0255 81.0437 22.2652 80.3556 22.2803C79.6674 22.2954 78.9929 22.0851 78.4327 21.6809C77.8724 21.2767 77.4565 20.7001 77.247 20.0373C77.0375 19.3745 77.0457 18.661 77.2702 18.0032C77.4948 17.3455 77.9237 16.7788 78.493 16.3877C79.0623 15.9966 79.7415 15.8022 80.4291 15.8333C81.1167 15.8644 81.7759 16.1195 82.3083 16.5605L82.8559 16.009C82.2803 15.512 81.5759 15.1922 80.8261 15.0875C80.0763 14.9827 79.3126 15.0974 78.6253 15.418C77.938 15.7385 77.3559 16.2515 76.9481 16.8961C76.5403 17.5407 76.3238 18.29 76.3242 19.0552Z" fill="#19181A"/>
</svg>
