<svg width="1011" height="532" viewBox="0 0 1011 532" fill="none" xmlns="http://www.w3.org/2000/svg">
<path d="M731.205 106.968L761.954 -136.233L690.61 -235.334L656.045 38.0511L731.205 106.968Z" fill="#19181A"/>
<path d="M791.419 162.174L819.111 -56.8459L761.955 -136.233L731.206 106.968L791.419 162.174Z" fill="white"/>
<path d="M865.94 8.18422L891.128 -191.037L846.801 -275.866L819.109 -56.846L865.94 8.18422Z" fill="white"/>
<path d="M840.753 207.406L865.941 8.18429L819.111 -56.8459L791.419 162.174L840.753 207.406Z" fill="#19181A"/>
<path d="M904.994 62.4273L928.094 -120.273L891.129 -191.037L865.941 8.18379L904.994 62.4273Z" fill="#19181A"/>
<path d="M881.893 245.128L904.993 62.4276L865.94 8.18405L840.752 207.405L881.893 245.128Z" fill="white"/>
<path d="M938.071 108.372L959.402 -60.3395L928.094 -120.273L904.995 62.428L938.071 108.372Z" fill="white"/>
<path d="M916.743 277.051L938.07 108.371L904.994 62.4274L881.894 245.128L916.743 277.051Z" fill="#19181A"/>
<path d="M966.449 147.769L986.261 -8.93355L959.401 -60.3397L938.07 108.372L966.449 147.769Z" fill="#19181A"/>
<path d="M946.636 304.471L966.449 147.769L938.07 108.372L916.743 277.051L946.636 304.471Z" fill="white"/>
<path d="M991.051 181.946L1009.55 35.6302L986.261 -8.93361L966.449 147.769L991.051 181.946Z" fill="white"/>
<path d="M972.555 328.23L991.05 181.946L966.448 147.769L946.635 304.471L972.555 328.23Z" fill="#19181A"/>
<path d="M1012.59 211.853L1029.94 74.6568L1009.55 35.6299L991.052 181.946L1012.59 211.853Z" fill="#19181A"/>
<path d="M995.245 349.049L1012.59 211.853L991.051 181.946L972.556 328.23L995.245 349.049Z" fill="white"/>
<path d="M1031.6 238.256L1047.93 109.11L1029.94 74.6567L1012.59 211.853L1031.6 238.256Z" fill="white"/>
<path d="M1015.27 367.403L1031.6 238.257L1012.59 211.853L995.247 349.049L1015.27 367.403Z" fill="#19181A"/>
<path d="M733.758 -156.473L764.507 86.7275L693.163 185.829L658.598 -87.5564L733.758 -156.473Z" fill="#19181A"/>
<path d="M821.664 7.3407L849.356 226.361L795.256 329.928L764.507 86.7276L821.664 7.3407Z" fill="#19181A"/>
<path d="M793.972 -211.679L821.664 7.34057L764.507 86.7274L733.758 -156.473L793.972 -211.679Z" fill="white"/>
<path d="M868.493 -57.6895L893.681 141.532L849.354 226.361L821.662 7.34072L868.493 -57.6895Z" fill="white"/>
<path d="M843.305 -256.911L868.494 -57.6897L821.663 7.34053L793.972 -211.679L843.305 -256.911Z" fill="#19181A"/>
<path d="M907.547 -111.933L930.646 70.7677L893.682 141.532L868.494 -57.6894L907.547 -111.933Z" fill="#19181A"/>
<path d="M940.624 -157.878L961.955 10.8339L930.647 70.7669L907.547 -111.934L940.624 -157.878Z" fill="white"/>
<path d="M969.002 -197.274L988.814 -40.5718L961.954 10.8343L940.623 -157.877L969.002 -197.274Z" fill="#19181A"/>
<g clip-path="url(#clip0_1194_5077)">
<path d="M442.298 78.3025H148.131L0.556641 0.760086H331.195L442.298 78.3025Z" fill="white"/>
<path d="M736.465 78.3025H442.298L331.195 0.760086H661.873L736.465 78.3025Z" fill="#19181A"/>
<path d="M531.298 140.424H266.379L148.131 78.3024H442.298L531.298 140.424Z" fill="#19181A"/>
<path d="M796.218 140.424H531.299L442.299 78.3024H736.466L796.218 140.424Z" fill="white"/>
<path d="M604.202 191.321H363.231L266.379 140.424H531.298L604.202 191.321Z" fill="white"/>
<path d="M845.174 191.321H604.203L531.299 140.424H796.218L845.174 191.321Z" fill="#19181A"/>
<path d="M665.014 233.766H444.025L363.23 191.321H604.202L665.014 233.766Z" fill="#19181A"/>
<path d="M886.003 233.766H665.014L604.202 191.321H845.174L886.003 233.766Z" fill="white"/>
<path d="M716.522 269.717H512.454L444.025 233.767H665.014L716.522 269.717Z" fill="white"/>
<path d="M920.551 269.717H716.522L665.015 233.767H886.003L920.551 269.717Z" fill="#19181A"/>
<path d="M760.688 300.558H571.146L512.454 269.717H716.522L760.688 300.558Z" fill="#19181A"/>
<path d="M950.23 300.558H760.688L716.521 269.717H920.55L950.23 300.558Z" fill="white"/>
<path d="M799.005 327.299H622.026L571.146 300.558H760.689L799.005 327.299Z" fill="white"/>
<path d="M975.945 327.299H799.005L760.688 300.558H950.231L975.945 327.299Z" fill="#19181A"/>
<path d="M832.532 350.708H666.584L622.025 327.299H799.005L832.532 350.708Z" fill="#19181A"/>
<path d="M998.48 350.708H832.532L799.005 327.299H975.945L998.48 350.708Z" fill="white"/>
<path d="M862.133 371.368H705.921L666.584 350.708H832.532L862.133 371.368Z" fill="white"/>
<path d="M1018.34 371.368H862.134L832.532 350.708H998.48L1018.34 371.368Z" fill="#19181A"/>
<path d="M888.437 389.752H740.902L705.922 371.368H862.133L888.437 389.752Z" fill="#19181A"/>
<path d="M1036.01 389.752H888.437L862.134 371.368H1018.35L1036.01 389.752Z" fill="white"/>
<path d="M912.032 406.204H772.192L740.902 389.752H888.437L912.032 406.204Z" fill="white"/>
<path d="M1051.83 406.204H912.031L888.437 389.752H1036.01L1051.83 406.204Z" fill="#19181A"/>
<path d="M933.231 421.009H800.378L772.19 406.204H912.031L933.231 421.009Z" fill="#19181A"/>
<path d="M1066.08 421.009H933.231L912.031 406.204H1051.83L1066.08 421.009Z" fill="white"/>
<path d="M952.43 434.414H825.898L800.38 421.009H933.232L952.43 434.414Z" fill="white"/>
<path d="M1078.96 434.414H952.429L933.231 421.009H1066.08L1078.96 434.414Z" fill="#19181A"/>
<path d="M969.898 446.599H849.059L825.896 434.414H952.428L969.898 446.599Z" fill="#19181A"/>
<path d="M1090.7 446.599H969.9L952.43 434.414H1078.96L1090.7 446.599Z" fill="white"/>
<path d="M985.839 457.729H870.26L849.061 446.599H969.9L985.839 457.729Z" fill="white"/>
<path d="M1101.42 457.729H985.839L969.899 446.599H1090.7L1101.42 457.729Z" fill="#19181A"/>
<path d="M1000.44 467.935H889.693L870.26 457.729H985.838L1000.44 467.935Z" fill="#19181A"/>
<path d="M1111.23 467.935H1000.44L985.838 457.729H1101.42L1111.23 467.935Z" fill="white"/>
<path d="M1013.91 477.322H907.556L889.693 467.935H1000.44L1013.91 477.322Z" fill="white"/>
<path d="M1120.26 477.322H1013.91L1000.44 467.935H1111.23L1120.26 477.322Z" fill="#19181A"/>
<path d="M1026.31 485.999H924.044L907.556 477.322H1013.91L1026.31 485.999Z" fill="#19181A"/>
<path d="M1037.82 494.023H939.356L924.045 485.999H1026.31L1037.82 494.023Z" fill="white"/>
<path d="M1048.49 501.479H953.527L939.354 494.023H1037.82L1048.49 501.479Z" fill="#19181A"/>
<path d="M1058.47 508.424H966.759L953.528 501.479H1048.5L1058.47 508.424Z" fill="white"/>
<path d="M1067.73 514.908H979.085L966.758 508.424H1058.47L1067.73 514.908Z" fill="#19181A"/>
<path d="M1076.45 520.977H990.627L979.085 514.908H1067.73L1076.45 520.977Z" fill="white"/>
<path d="M1084.57 526.654H1001.46L990.628 520.977H1076.45L1084.57 526.654Z" fill="#19181A"/>
<path d="M1092.23 532H1011.63L1001.46 526.654H1084.57L1092.23 532Z" fill="white"/>
</g>
<g clip-path="url(#clip1_1194_5077)">
<path d="M442.298 -76.7822H148.131L0.556641 0.760178H331.195L442.298 -76.7822Z" fill="white"/>
<path d="M736.465 -76.7822H442.298L331.195 0.760178H661.873L736.465 -76.7822Z" fill="#19181A"/>
</g>
<defs>
<clipPath id="clip0_1194_5077">
<rect width="1172.27" height="531.24" fill="white" transform="matrix(1 0 0 -1 0.556641 532)"/>
</clipPath>
<clipPath id="clip1_1194_5077">
<rect width="1172.27" height="531.24" fill="white" transform="translate(0.556641 -530.48)"/>
</clipPath>
</defs>
</svg>
