<svg width="1011" height="561" viewBox="0 0 1011 561" fill="none" xmlns="http://www.w3.org/2000/svg">
<path d="M731.205 666.968L761.954 423.767L690.61 324.666L656.045 598.051L731.205 666.968Z" fill="#19181A"/>
<path d="M819.111 503.154L846.803 284.134L792.704 180.567L761.955 423.767L819.111 503.154Z" fill="#19181A"/>
<path d="M791.419 722.174L819.111 503.154L761.955 423.767L731.206 666.968L791.419 722.174Z" fill="white"/>
<path d="M865.94 568.184L891.128 368.963L846.801 284.134L819.109 503.154L865.94 568.184Z" fill="white"/>
<path d="M840.753 767.406L865.941 568.184L819.111 503.154L791.419 722.174L840.753 767.406Z" fill="#19181A"/>
<path d="M904.994 622.427L928.094 439.727L891.129 368.963L865.941 568.184L904.994 622.427Z" fill="#19181A"/>
<path d="M938.071 668.372L959.402 499.66L928.094 439.727L904.995 622.428L938.071 668.372Z" fill="white"/>
<path d="M966.449 707.769L986.261 551.066L959.401 499.66L938.07 668.372L966.449 707.769Z" fill="#19181A"/>
<path d="M991.051 741.946L1009.55 595.63L986.261 551.066L966.449 707.769L991.051 741.946Z" fill="white"/>
<path d="M733.758 403.527L764.507 646.727L693.163 745.829L658.598 472.444L733.758 403.527Z" fill="#19181A"/>
<path d="M793.972 348.321L821.664 567.341L764.507 646.727L733.758 403.527L793.972 348.321Z" fill="white"/>
<path d="M868.493 502.31L893.681 701.532L849.354 786.361L821.662 567.341L868.493 502.31Z" fill="white"/>
<path d="M843.305 303.089L868.494 502.31L821.663 567.341L793.972 348.321L843.305 303.089Z" fill="#19181A"/>
<path d="M907.547 448.067L930.646 630.768L893.682 701.532L868.494 502.311L907.547 448.067Z" fill="#19181A"/>
<path d="M884.446 265.366L907.546 448.067L868.493 502.31L843.304 303.089L884.446 265.366Z" fill="white"/>
<path d="M940.624 402.122L961.955 570.834L930.647 630.767L907.547 448.066L940.624 402.122Z" fill="white"/>
<path d="M919.296 233.444L940.623 402.123L907.546 448.067L884.447 265.366L919.296 233.444Z" fill="#19181A"/>
<path d="M969.002 362.726L988.814 519.428L961.954 570.834L940.623 402.123L969.002 362.726Z" fill="#19181A"/>
<path d="M949.189 206.023L969.002 362.726L940.623 402.123L919.296 233.444L949.189 206.023Z" fill="white"/>
<path d="M993.604 328.548L1012.1 474.864L988.814 519.428L969.002 362.726L993.604 328.548Z" fill="white"/>
<path d="M975.108 182.264L993.603 328.548L969.001 362.726L949.188 206.023L975.108 182.264Z" fill="#19181A"/>
<path d="M1015.14 298.642L1032.49 435.838L1012.1 474.864L993.605 328.548L1015.14 298.642Z" fill="#19181A"/>
<path d="M997.798 161.446L1015.14 298.642L993.604 328.548L975.109 182.264L997.798 161.446Z" fill="white"/>
<path d="M1017.83 143.091L1034.15 272.237L1015.15 298.641L997.799 161.445L1017.83 143.091Z" fill="#19181A"/>
<g clip-path="url(#clip0_1194_4867)">
<path d="M442.298 638.302H148.131L0.556641 560.76H331.195L442.298 638.302Z" fill="white"/>
<path d="M736.465 638.302H442.298L331.195 560.76H661.873L736.465 638.302Z" fill="#19181A"/>
</g>
<g clip-path="url(#clip1_1194_4867)">
<path d="M442.298 483.218H148.131L0.556641 560.76H331.195L442.298 483.218Z" fill="white"/>
<path d="M736.465 483.218H442.298L331.195 560.76H661.873L736.465 483.218Z" fill="#19181A"/>
<path d="M531.298 421.096H266.379L148.131 483.218H442.298L531.298 421.096Z" fill="#19181A"/>
<path d="M796.218 421.096H531.299L442.299 483.218H736.466L796.218 421.096Z" fill="white"/>
<path d="M604.202 370.199H363.231L266.379 421.096H531.298L604.202 370.199Z" fill="white"/>
<path d="M845.174 370.199H604.203L531.299 421.096H796.218L845.174 370.199Z" fill="#19181A"/>
<path d="M665.014 327.754H444.025L363.23 370.2H604.202L665.014 327.754Z" fill="#19181A"/>
<path d="M886.003 327.754H665.014L604.202 370.2H845.174L886.003 327.754Z" fill="white"/>
<path d="M716.522 291.803H512.454L444.025 327.754H665.014L716.522 291.803Z" fill="white"/>
<path d="M920.551 291.803H716.522L665.015 327.754H886.003L920.551 291.803Z" fill="#19181A"/>
<path d="M760.688 260.962H571.146L512.454 291.804H716.522L760.688 260.962Z" fill="#19181A"/>
<path d="M950.23 260.962H760.688L716.521 291.804H920.55L950.23 260.962Z" fill="white"/>
<path d="M799.005 234.222H622.026L571.146 260.962H760.689L799.005 234.222Z" fill="white"/>
<path d="M975.945 234.222H799.005L760.688 260.962H950.231L975.945 234.222Z" fill="#19181A"/>
<path d="M832.532 210.812H666.584L622.025 234.222H799.005L832.532 210.812Z" fill="#19181A"/>
<path d="M998.48 210.812H832.532L799.005 234.222H975.945L998.48 210.812Z" fill="white"/>
<path d="M862.133 190.152H705.921L666.584 210.812H832.532L862.133 190.152Z" fill="white"/>
<path d="M1018.34 190.152H862.134L832.532 210.812H998.48L1018.34 190.152Z" fill="#19181A"/>
<path d="M888.437 171.768H740.902L705.922 190.152H862.133L888.437 171.768Z" fill="#19181A"/>
<path d="M1036.01 171.768H888.437L862.134 190.152H1018.35L1036.01 171.768Z" fill="white"/>
<path d="M912.032 155.316H772.192L740.902 171.768H888.437L912.032 155.316Z" fill="white"/>
<path d="M1051.83 155.316H912.031L888.437 171.768H1036.01L1051.83 155.316Z" fill="#19181A"/>
<path d="M933.231 140.512H800.378L772.19 155.316H912.031L933.231 140.512Z" fill="#19181A"/>
<path d="M1066.08 140.512H933.231L912.031 155.316H1051.83L1066.08 140.512Z" fill="white"/>
<path d="M952.43 127.106H825.898L800.38 140.512H933.232L952.43 127.106Z" fill="white"/>
<path d="M1078.96 127.106H952.429L933.231 140.512H1066.08L1078.96 127.106Z" fill="#19181A"/>
<path d="M969.898 114.921H849.059L825.896 127.106H952.428L969.898 114.921Z" fill="#19181A"/>
<path d="M1090.7 114.921H969.9L952.43 127.106H1078.96L1090.7 114.921Z" fill="white"/>
<path d="M985.839 103.791H870.26L849.061 114.921H969.9L985.839 103.791Z" fill="white"/>
<path d="M1101.42 103.791H985.839L969.899 114.921H1090.7L1101.42 103.791Z" fill="#19181A"/>
<path d="M1000.44 93.5857H889.693L870.26 103.791H985.838L1000.44 93.5857Z" fill="#19181A"/>
<path d="M1111.23 93.5857H1000.44L985.838 103.791H1101.42L1111.23 93.5857Z" fill="white"/>
<path d="M1013.91 84.198H907.556L889.693 93.5856H1000.44L1013.91 84.198Z" fill="white"/>
<path d="M1120.26 84.198H1013.91L1000.44 93.5856H1111.23L1120.26 84.198Z" fill="#19181A"/>
<path d="M1026.31 75.5217H924.044L907.556 84.1981H1013.91L1026.31 75.5217Z" fill="#19181A"/>
<path d="M1037.82 67.4973H939.356L924.045 75.5218H1026.31L1037.82 67.4973Z" fill="white"/>
<path d="M1048.49 60.042H953.527L939.354 67.4975H1037.82L1048.49 60.042Z" fill="#19181A"/>
<path d="M1058.47 53.0959H966.759L953.528 60.0418H1048.5L1058.47 53.0959Z" fill="white"/>
<path d="M1067.73 46.6125H979.085L966.758 53.0961H1058.47L1067.73 46.6125Z" fill="#19181A"/>
<path d="M1076.45 40.5435H990.627L979.085 46.6122H1067.73L1076.45 40.5435Z" fill="white"/>
<path d="M1084.57 34.866H1001.46L990.628 40.5436H1076.45L1084.57 34.866Z" fill="#19181A"/>
<path d="M1092.23 29.5203H1011.63L1001.46 34.866H1084.57L1092.23 29.5203Z" fill="white"/>
</g>
<defs>
<clipPath id="clip0_1194_4867">
<rect width="1172.27" height="531.24" fill="white" transform="matrix(1 0 0 -1 0.556641 1092)"/>
</clipPath>
<clipPath id="clip1_1194_4867">
<rect width="1172.27" height="531.24" fill="white" transform="translate(0.556641 29.5203)"/>
</clipPath>
</defs>
</svg>
