<svg width="1160" height="1281" viewBox="0 0 1160 1281" fill="none" xmlns="http://www.w3.org/2000/svg">
<g filter="url(#filter0_f_704_492)">
<path d="M704.403 338.611C692.568 310.115 686.99 279.407 688.046 248.56C689.102 217.713 696.767 187.446 710.525 159.802C724.282 132.158 743.812 107.78 767.794 88.3157C791.776 68.851 819.653 54.7522 849.543 46.971C879.433 39.1899 910.639 37.9078 941.055 43.211C971.471 48.5143 1000.39 60.2794 1025.85 77.7123C1051.32 95.1451 1072.74 117.84 1088.68 144.264C1104.61 170.688 1114.68 200.227 1118.21 230.885C1121.56 263.36 1117.57 296.18 1106.53 326.92C1095.49 357.659 1077.68 385.532 1054.42 408.479C1031.16 431.427 1003.04 448.862 972.149 459.496C941.252 470.131 908.367 473.693 875.921 469.919C886.894 480.446 899.391 491.273 909.608 503.416C919.428 516.029 928.54 529.176 936.902 542.797C939.095 546.703 940.631 550.943 941.448 555.348C942.47 558.533 942.791 561.901 942.39 565.223C941.989 568.544 940.874 571.741 939.123 574.593C937.372 577.445 935.025 579.887 932.243 581.75C929.462 583.613 926.311 584.853 923.006 585.387C914.508 587.309 905.719 587.574 897.124 586.166C884.061 583.422 871.462 578.555 858.594 574.687C853.407 572.588 848.002 571.072 842.479 570.164C815.548 567.771 788.412 571.242 762.942 580.338C744.15 586.81 728.66 600.418 719.824 618.215C706.495 643.953 693.239 669.818 681.526 696.308C670.349 726.91 662.515 758.627 658.159 790.906C650.849 829.182 645.961 867.879 643.523 906.766C643.346 915.402 641.257 923.893 637.404 931.628C633.551 939.363 628.032 946.149 621.242 951.499C619.85 952.303 620.097 955.364 619.761 957.413C619.425 959.462 620.199 958.171 620.418 958.551C621.845 969.758 625.014 980.672 629.811 990.899C631.284 995.66 631.562 1000.71 630.62 1005.61C629.679 1010.5 627.547 1015.09 624.413 1018.97C612.292 1038.62 600.044 1058.33 589.14 1078.62C584.881 1085.68 583.156 1093.98 584.25 1102.15C585.344 1110.31 589.191 1117.86 595.157 1123.54C601.653 1130.52 606.207 1139.07 608.369 1148.36C610.53 1157.64 610.223 1167.33 607.478 1176.46C602.768 1193.87 594.091 1209.96 582.125 1223.47C576.533 1229.11 569.851 1233.56 562.486 1236.53C555.121 1239.51 547.228 1240.96 539.288 1240.78C492.841 1242.38 446.63 1233.64 403.994 1215.2C360.61 1196.99 319.63 1173.54 281.973 1145.35C249.774 1121.45 217.989 1096.8 188.065 1070.41C134.239 1025.25 89.3528 970.408 55.7249 908.724C50.1621 897.828 45.6666 886.419 42.3012 874.657C40.4001 868.419 39.848 861.847 40.6816 855.377C41.5151 848.907 43.7153 842.687 47.1361 837.13C57.1347 818.545 72.534 803.422 91.3013 793.757C105.187 786.924 121.078 785.359 136.021 789.353C143.226 791.319 150.781 791.651 158.133 790.323C165.486 788.996 172.45 786.043 178.516 781.68C190.012 773.1 200.537 763.292 209.904 752.43C217.954 743.567 224.474 733.226 231.467 723.118C235.427 717.474 240.758 712.928 246.958 709.909C253.158 706.889 260.024 705.496 266.909 705.86C273.441 705.642 279.945 704.876 286.35 703.572C286.35 703.572 287.869 702.695 288.629 702.257C304.238 682.765 325.275 668.331 349.079 660.779C376.589 649.955 403.164 641.02 430.664 632.225C484.933 613.79 535.049 584.855 578.149 547.074C593.248 535.763 606.649 522.348 617.941 507.238C622.691 500.436 626.04 492.759 627.793 484.654C629.547 476.549 629.671 468.178 628.157 460.028C623.861 437.384 618.913 414.779 611.9 392.692C608.897 386.614 604.774 381.157 599.745 376.609C592.73 367.675 585.155 359.234 579.027 349.788C575.098 344.81 572.795 338.743 572.429 332.41C572.063 326.077 573.653 319.783 576.982 314.379C580.589 308.875 585.719 304.538 591.747 301.897C597.774 299.255 604.439 298.423 610.929 299.501C629.179 302.343 646.736 308.56 662.7 317.835C677.004 322.73 690.397 331.016 704.403 338.611Z" fill="#EAEAEA" fill-opacity="0.05"/>
</g>
<defs>
<filter id="filter0_f_704_492" x="0.404686" y="0.102318" width="1158.86" height="1280.77" filterUnits="userSpaceOnUse" color-interpolation-filters="sRGB">
<feFlood flood-opacity="0" result="BackgroundImageFix"/>
<feBlend mode="normal" in="SourceGraphic" in2="BackgroundImageFix" result="shape"/>
<feGaussianBlur stdDeviation="19.95" result="effect1_foregroundBlur_704_492"/>
</filter>
</defs>
</svg>
