<svg width="483" height="533" viewBox="0 0 483 533" fill="none" xmlns="http://www.w3.org/2000/svg">
<g filter="url(#filter0_f_705_9854)">
<path d="M131.597 201.092C120.142 202.611 108.494 201.652 97.4381 198.281C86.3824 194.909 76.1769 189.202 67.5107 181.546C58.8446 173.89 51.9195 164.463 47.2031 153.902C42.4867 143.34 40.0887 131.89 40.1711 120.324C40.2535 108.758 42.8143 97.3454 47.6807 86.8572C52.5471 76.3689 59.6056 67.049 68.3799 59.5267C77.1542 52.0045 87.4399 46.4549 98.5424 43.2528C109.645 40.0507 121.306 39.2706 132.738 40.9651C144.81 42.9 156.295 47.5249 166.344 54.4982C176.393 61.4715 184.75 70.6148 190.796 81.2527C196.842 91.8905 200.424 103.751 201.276 115.958C202.128 128.164 200.229 140.405 195.719 151.776C200.591 148.827 205.718 145.356 211.101 142.837C216.615 140.508 222.254 138.486 227.992 136.781C229.617 136.367 231.3 136.222 232.972 136.353C234.223 136.292 235.473 136.503 236.636 136.97C237.798 137.437 238.846 138.15 239.708 139.06C240.57 139.97 241.226 141.055 241.63 142.242C242.035 143.429 242.178 144.689 242.051 145.936C241.922 149.196 241.166 152.401 239.824 155.374C237.565 159.833 234.584 163.919 231.937 168.198C230.675 169.871 229.603 171.679 228.739 173.589C225.263 183.099 223.889 193.251 224.71 203.346C225.23 210.771 228.651 217.693 234.232 222.614C242.251 229.93 250.322 237.232 258.769 244.036C268.755 251.046 279.468 256.954 290.722 261.658C303.859 268.012 317.383 273.531 331.213 278.182C334.32 279.083 337.189 280.662 339.614 282.805C342.038 284.948 343.958 287.602 345.235 290.577C345.391 291.159 346.522 291.366 347.231 291.686C347.939 292.006 347.547 291.601 347.706 291.558C351.898 292.129 356.153 292.04 360.317 291.296C362.182 291.225 364.036 291.614 365.716 292.429C367.395 293.244 368.849 294.46 369.949 295.97C375.88 302.258 381.825 308.6 388.108 314.51C390.249 316.735 393.083 318.164 396.143 318.559C399.203 318.955 402.306 318.295 404.94 316.688C408.092 315.014 411.628 314.196 415.195 314.314C418.763 314.432 422.238 315.482 425.275 317.36C431.117 320.751 436.096 325.45 439.823 331.087C441.322 333.657 442.282 336.505 442.645 339.458C443.008 342.41 442.766 345.406 441.934 348.261C438.008 365.216 430.367 381.085 419.564 394.72C408.775 408.649 396.319 421.199 382.474 432.089C370.707 441.419 358.71 450.528 346.262 458.794C324.709 473.887 300.522 484.808 274.95 490.994C270.469 491.95 265.907 492.47 261.326 492.547C258.885 492.63 256.454 492.193 254.195 491.265C251.935 490.336 249.898 488.937 248.22 487.161C242.466 481.743 238.488 474.707 236.811 466.982C235.685 461.296 236.66 455.397 239.553 450.378C240.962 447.963 241.814 445.262 242.047 442.474C242.279 439.686 241.886 436.88 240.896 434.263C238.907 429.273 236.379 424.515 233.358 420.074C230.932 416.303 227.823 412.943 224.845 409.433C223.187 407.454 222.059 405.085 221.568 402.549C221.077 400.014 221.238 397.395 222.037 394.94C222.591 392.556 222.945 390.13 223.094 387.686C223.094 387.686 222.924 387.052 222.839 386.734C217.301 379.199 214.119 370.19 213.695 360.848C212.446 349.847 211.789 339.369 211.273 328.569C209.865 307.151 204.256 286.219 194.767 266.966C192.139 260.408 188.585 254.261 184.214 248.711C182.214 246.334 179.762 244.379 177 242.959C174.238 241.539 171.222 240.682 168.127 240.44C159.52 239.799 150.863 239.398 142.194 239.794C139.704 240.291 137.331 241.254 135.198 242.632C131.287 244.304 127.499 246.226 123.489 247.527C121.307 248.466 118.889 248.711 116.563 248.229C114.237 247.748 112.114 246.563 110.482 244.835C108.841 242.996 107.769 240.72 107.398 238.284C107.026 235.848 107.371 233.356 108.39 231.113C111.187 224.787 115.138 219.039 120.04 214.163C123.197 209.463 127.493 205.422 131.597 201.092Z" fill="#EAEAEA" fill-opacity="0.05"/>
</g>
<defs>
<filter id="filter0_f_705_9854" x="0.268944" y="0.192772" width="482.44" height="532.264" filterUnits="userSpaceOnUse" color-interpolation-filters="sRGB">
<feFlood flood-opacity="0" result="BackgroundImageFix"/>
<feBlend mode="normal" in="SourceGraphic" in2="BackgroundImageFix" result="shape"/>
<feGaussianBlur stdDeviation="19.95" result="effect1_foregroundBlur_705_9854"/>
</filter>
</defs>
</svg>
