<svg width="149" height="213" viewBox="0 0 149 213" fill="none" xmlns="http://www.w3.org/2000/svg">
<path d="M31.1043 71.6986C26.0048 71.032 21.1076 69.2776 16.7432 66.5538C12.3787 63.83 8.64878 60.2002 5.80513 55.9096C2.96147 51.6189 1.07032 46.7673 0.259345 41.6822C-0.551627 36.5971 -0.263522 31.3969 1.10419 26.4328C2.47189 21.4688 4.88737 16.8564 8.18754 12.907C11.4877 8.95759 15.5957 5.76318 20.2342 3.53948C24.8727 1.31578 29.9337 0.114544 35.0755 0.0168544C40.2173 -0.0808356 45.3202 0.927293 50.0396 2.9732C55.0064 5.1962 59.411 8.50832 62.9278 12.6648C66.4446 16.8213 68.9837 21.7159 70.3576 26.987C71.7314 32.2581 71.9049 37.771 70.8652 43.1182C69.8254 48.4655 67.5991 53.5105 64.3506 57.8804C66.7844 57.1737 69.3886 56.2719 71.9929 55.8089C74.6316 55.4425 77.2885 55.2228 79.9515 55.1509C80.6981 55.1598 81.4381 55.2916 82.142 55.5408C82.6868 55.6587 83.1998 55.8931 83.6458 56.2279C84.0918 56.5627 84.4603 56.99 84.7261 57.4806C84.9918 57.9713 85.1486 58.5136 85.1857 59.0705C85.2228 59.6274 85.1393 60.1858 84.9409 60.7074C84.5102 62.0947 83.816 63.3856 82.8965 64.5092C81.4118 66.1665 79.6595 67.5799 78.0288 69.1153C77.2936 69.6893 76.6243 70.3432 76.0331 71.065C73.4433 74.7538 71.6829 78.9609 70.8733 83.3965C70.2415 86.6492 70.9148 90.0201 72.7473 92.7793C75.3516 96.8492 77.9801 100.919 80.8277 104.818C84.3133 108.983 88.2384 112.758 92.5345 116.078C97.4502 120.324 102.628 124.255 108.038 127.849C109.27 128.594 110.321 129.604 111.117 130.805C111.912 132.006 112.432 133.368 112.638 134.794C112.638 135.062 113.1 135.282 113.368 135.501C113.636 135.72 113.514 135.501 113.587 135.501C115.324 136.229 117.163 136.682 119.039 136.841C119.849 137.026 120.601 137.407 121.229 137.951C121.858 138.495 122.342 139.185 122.641 139.961C124.467 143.348 126.292 146.76 128.312 150.026C128.976 151.229 130.03 152.17 131.3 152.693C132.57 153.216 133.98 153.289 135.297 152.902C136.845 152.545 138.459 152.601 139.979 153.063C141.499 153.524 142.872 154.376 143.962 155.534C146.083 157.665 147.682 160.259 148.635 163.113C148.983 164.391 149.068 165.726 148.884 167.038C148.699 168.349 148.25 169.609 147.564 170.741C143.923 177.58 138.81 183.523 132.596 188.142C126.353 192.888 119.552 196.85 112.346 199.937C106.213 202.594 100.006 205.128 93.7028 207.248C82.6985 211.255 71.0426 213.165 59.3369 212.878C57.3006 212.773 55.2792 212.471 53.3009 211.976C52.2421 211.731 51.2475 211.263 50.3832 210.603C49.5188 209.944 48.8043 209.107 48.2872 208.15C46.4379 205.157 45.5384 201.673 45.7073 198.158C45.8782 195.584 46.9765 193.159 48.7983 191.334C49.6825 190.458 50.36 189.395 50.7811 188.223C51.2021 187.05 51.3563 185.799 51.2322 184.559C50.9517 182.184 50.413 179.847 49.6258 177.589C49.0174 175.688 48.0682 173.885 47.192 172.033C46.7072 170.991 46.4953 169.842 46.5762 168.695C46.6571 167.548 47.0281 166.441 47.6544 165.477C48.1673 164.516 48.5988 163.513 48.9443 162.479C48.9443 162.479 48.9443 162.187 48.9443 162.041C47.4317 158.162 47.1014 153.922 47.9951 149.855C48.7253 144.981 49.6501 140.4 50.6723 135.696C52.534 126.324 52.534 116.676 50.6723 107.304C50.298 104.181 49.4784 101.128 48.2385 98.2383C47.6525 96.9856 46.8235 95.8622 45.7998 94.9334C44.7761 94.0045 43.5781 93.2888 42.2756 92.828C38.6492 91.5607 34.9741 90.3909 31.2016 89.5623C30.074 89.4892 28.9428 89.6297 27.8672 89.9766C25.9932 90.2447 24.1434 90.6347 22.2694 90.7321C21.2233 90.8844 20.1558 90.7113 19.2112 90.2362C18.2666 89.761 17.4905 89.0069 16.9879 88.0757C16.4942 87.0962 16.2957 85.994 16.4167 84.9035C16.5377 83.813 16.973 82.7814 17.6694 81.9343C19.6005 79.5362 21.9611 77.5196 24.6302 75.9878C26.5286 74.3306 28.8408 73.0877 31.1043 71.6986Z" fill="#FF89C3"/>
</svg>
