<svg width="485" height="531" viewBox="0 0 485 531" fill="none" xmlns="http://www.w3.org/2000/svg">
<g filter="url(#filter0_f_705_9852)">
<path d="M288.852 152.41C284.42 141.739 282.331 130.239 282.726 118.687C283.122 107.136 285.992 95.801 291.144 85.4486C296.296 75.0963 303.61 65.9673 312.591 58.678C321.572 51.3888 332.011 46.1089 343.205 43.195C354.398 40.2811 366.084 39.8009 377.475 41.7869C388.865 43.7729 399.694 48.1788 409.231 54.7072C418.768 61.2356 426.791 69.7345 432.757 79.63C438.724 89.5255 442.495 100.587 443.817 112.068C445.073 124.23 443.578 136.521 439.443 148.032C435.309 159.544 428.64 169.982 419.929 178.575C411.219 187.169 400.689 193.698 389.119 197.68C377.549 201.663 365.233 202.997 353.083 201.584C357.192 205.526 361.872 209.58 365.698 214.128C369.376 218.851 372.788 223.774 375.92 228.875C376.741 230.338 377.316 231.926 377.622 233.576C378.005 234.768 378.125 236.029 377.975 237.273C377.824 238.517 377.407 239.714 376.751 240.782C376.096 241.851 375.217 242.765 374.175 243.463C373.133 244.16 371.953 244.625 370.716 244.825C367.533 245.545 364.242 245.644 361.023 245.116C356.131 244.089 351.413 242.266 346.594 240.818C344.652 240.032 342.628 239.464 340.559 239.124C330.474 238.228 320.312 239.527 310.774 242.934C303.737 245.358 297.935 250.454 294.627 257.118C289.635 266.757 284.671 276.443 280.285 286.363C276.099 297.823 273.165 309.701 271.534 321.789C268.796 336.123 266.966 350.614 266.053 365.177C265.987 368.411 265.204 371.591 263.761 374.487C262.319 377.384 260.252 379.925 257.709 381.929C257.188 382.23 257.28 383.376 257.154 384.143C257.029 384.911 257.319 384.428 257.401 384.57C257.935 388.766 259.122 392.854 260.918 396.683C261.469 398.466 261.574 400.358 261.221 402.191C260.868 404.024 260.07 405.743 258.896 407.196C254.357 414.553 249.771 421.937 245.687 429.535C244.092 432.179 243.446 435.286 243.856 438.345C244.266 441.403 245.706 444.229 247.941 446.357C250.373 448.969 252.079 452.173 252.888 455.649C253.697 459.125 253.582 462.754 252.554 466.173C250.791 472.694 247.541 478.72 243.06 483.779C240.966 485.892 238.464 487.556 235.706 488.671C232.947 489.786 229.992 490.327 227.018 490.262C209.625 490.858 192.319 487.585 176.352 480.68C160.106 473.863 144.759 465.079 130.657 454.524C118.599 445.573 106.696 436.343 95.4899 426.459C75.3327 409.546 58.5235 389.01 45.9303 365.91C43.8472 361.83 42.1636 357.557 40.9033 353.152C40.1914 350.816 39.9847 348.355 40.2968 345.932C40.6089 343.51 41.4329 341.18 42.7139 339.099C46.4583 332.139 52.2251 326.476 59.2532 322.857C64.4532 320.298 70.4041 319.712 76.0002 321.207C78.6983 321.944 81.5276 322.068 84.281 321.571C87.0344 321.073 89.6423 319.968 91.9141 318.334C96.2191 315.121 100.161 311.448 103.668 307.38C106.683 304.061 109.125 300.188 111.743 296.403C113.226 294.289 115.223 292.587 117.545 291.456C119.867 290.326 122.438 289.804 125.016 289.94C127.462 289.858 129.898 289.572 132.296 289.083C132.296 289.083 132.865 288.755 133.15 288.591C138.995 281.291 146.873 275.886 155.788 273.058C166.09 269.005 176.042 265.658 186.34 262.365C206.663 255.461 225.431 244.626 241.571 230.477C247.226 226.241 252.244 221.217 256.473 215.559C258.251 213.012 259.506 210.137 260.162 207.102C260.819 204.066 260.866 200.932 260.299 197.879C258.69 189.399 256.837 180.934 254.21 172.663C253.086 170.387 251.542 168.343 249.659 166.64C247.032 163.295 244.195 160.133 241.9 156.596C240.429 154.732 239.566 152.46 239.429 150.088C239.292 147.717 239.887 145.359 241.134 143.336C242.485 141.275 244.406 139.651 246.663 138.661C248.921 137.672 251.417 137.36 253.847 137.764C260.681 138.828 267.256 141.157 273.235 144.63C278.591 146.463 283.607 149.566 288.852 152.41Z" fill="#EAEAEA" fill-opacity="0.05"/>
</g>
<defs>
<filter id="filter0_f_705_9852" x="0.25576" y="0.685318" width="483.893" height="529.546" filterUnits="userSpaceOnUse" color-interpolation-filters="sRGB">
<feFlood flood-opacity="0" result="BackgroundImageFix"/>
<feBlend mode="normal" in="SourceGraphic" in2="BackgroundImageFix" result="shape"/>
<feGaussianBlur stdDeviation="19.95" result="effect1_foregroundBlur_705_9852"/>
</filter>
</defs>
</svg>
